<?xml version="1.0" encoding="utf-8"?>
<!-- Generator: Adobe Illustrator 26.0.1, SVG Export Plug-In . SVG Version: 6.00 Build 0)  -->
<svg version="1.1" id="Layer_1" xmlns="http://www.w3.org/2000/svg" xmlns:xlink="http://www.w3.org/1999/xlink" x="0px" y="0px"
	 viewBox="0 0 1000 689.5" style="enable-background:new 0 0 1000 689.5;" xml:space="preserve">
<style type="text/css">
	.st0{fill:#EEECE2;}
</style>
<g>
	<path class="st0" d="M307.2,136.2c-2.4-1.2-4.9-2.1-7.6-2.6c-2.7-0.5-5.5-0.8-8.4-0.9c-2.8-0.1-5.6-0.3-8.1-0.5
		c-2.6-0.3-4.9-0.8-6.9-1.5c-2.1-0.7-3.7-2-4.8-3.9c-0.8-1.3-1.3-2.9-1.5-4.8l18.2,0l4.6-12.8c-1.6-0.2-3.3-0.3-4.8-0.4
		c-1.6-0.1-3.2,0-4.7,0.2c-1.6,0.2-3.1,0.6-4.7,1.1c-1.6,0.5-3.2,1.3-4.8,2.3c-2.3,1.4-4.2,3.1-5.7,5c-1.5,1.9-2.5,4-3.2,6.1
		c-0.6,2.2-0.8,4.4-0.4,6.7c0.3,2.3,1.1,4.5,2.4,6.7c1.4,2.3,3.2,4.1,5.4,5.2c2.2,1.2,4.5,2,7.1,2.5c2.6,0.5,5.2,0.9,7.9,1.1
		c2.7,0.2,5.3,0.5,7.7,0.8s4.7,1,6.6,1.8c2,0.8,3.5,2.2,4.6,4c0.6,0.9,1,2,1.3,3.3c0.3,1.2,0.4,2.7,0.4,4.3l-19.1-0.6l-4.6,12.7
		c3.7,0.3,7.5,0,11.2-1c3.7-1,7.2-2.5,10.3-4.4c2.2-1.3,4.1-3,5.6-4.9c1.5-1.9,2.7-4,3.4-6.2c0.7-2.2,1-4.5,0.8-6.8
		c-0.2-2.3-1-4.6-2.3-6.8C311.5,139.3,309.6,137.4,307.2,136.2"/>
	<polygon class="st0" points="359.4,90 354.8,78.4 310.9,95.7 315.5,107.3 328.8,93.5 346.4,138 343.1,147.8 366.8,138.4 
		357.7,133.5 340.2,89 	"/>
	<path class="st0" d="M445.2,57L420.1,61l7.8,6.7l8,49.1l-16-8.5l-8.6,9.7c1.7,0.9,3.3,1.7,4.8,2.3c1.5,0.6,3,1.1,4.5,1.4
		c1.5,0.3,3.1,0.5,4.7,0.6c1.6,0,3.4-0.1,5.2-0.4c2.6-0.4,4.9-1.2,7-2.5c2.1-1.2,3.8-2.7,5.1-4.5c1.3-1.8,2.3-3.8,2.8-5.9
		c0.6-2.2,0.7-4.4,0.3-6.7l-5.9-36.5L445.2,57z"/>
	<path class="st0" d="M512.6,90.5c0.1,5.3-1,10.7-3.2,16.2c-4.9,0.1-9.2-0.6-13.1-2.1c-3.9-1.5-7.2-3.6-9.9-6.2
		c-2.7-2.6-4.8-5.8-6.3-9.3c-1.5-3.6-2.3-7.5-2.3-11.6c0-2.6,0.2-5.2,0.7-7.9c0.5-2.7,1.3-5.4,2.5-8.2c4.9-0.1,9.2,0.6,13.1,2.1
		c3.9,1.5,7.2,3.5,9.9,6.2c2.7,2.6,4.8,5.7,6.3,9.3C511.8,82.5,512.5,86.4,512.6,90.5 M523,83.2c-0.1-4.5-0.9-8.7-2.4-12.4
		c-1.5-3.8-3.6-7-6.2-9.7c-2.6-2.7-5.6-4.8-9-6.3c-3.4-1.5-7.1-2.2-10.9-2.1c-3.9,0.1-7.5,0.9-10.9,2.6c-3.4,1.7-6.3,4-8.8,6.9
		c-2.5,2.9-4.4,6.3-5.8,10.2c-1.4,3.9-2,8.1-2,12.7c0.1,4.5,0.9,8.6,2.4,12.3c1.5,3.7,3.6,6.8,6.2,9.5c2.6,2.6,5.6,4.6,9,6
		c3.4,1.4,7.1,2.1,11,2c3.9-0.1,7.5-0.9,10.8-2.5c3.4-1.6,6.3-3.8,8.8-6.7c2.5-2.8,4.4-6.2,5.8-10C522.5,91.9,523.1,87.8,523,83.2"
		/>
	<polygon class="st0" points="594,122 588.5,113.3 594,69.2 601.6,62.2 576.4,59 582,67.7 579.8,84.9 560.8,82.5 563,65.3 
		570.6,58.3 545.4,55.1 551,63.8 545.4,107.9 537.8,114.9 563,118.1 557.4,109.4 560,89.3 579,91.7 576.4,111.8 568.9,118.8 	"/>
	<polygon class="st0" points="677.9,85.2 658.5,78.8 662.4,88.4 652.9,117.4 641,73.1 627.1,68.5 629.4,77.5 615.5,119.8 
		606.8,125.3 625.9,131.6 622.1,122 632.7,89.6 646.4,140.3 659.4,135.3 656.4,129.4 669.1,90.6 	"/>
	<polygon class="st0" points="705.2,108.4 700.4,97.4 683.1,108.1 687.9,119.3 	"/>
	<path class="st0" d="M738.6,155.2c0-2.7-0.4-5.3-1.3-8c-0.8-2.7-1.9-5.3-3.1-7.8c-1.3-2.6-2.4-5-3.3-7.4c-1-2.4-1.6-4.7-1.9-6.8
		c-0.3-2.2,0.1-4.2,1.2-6c0.8-1.3,1.9-2.5,3.5-3.6l8.6,16.1l13.5-2c-0.6-1.5-1.3-3-2-4.5c-0.7-1.4-1.5-2.8-2.4-4.1
		c-0.9-1.3-2-2.5-3.2-3.6c-1.2-1.1-2.6-2.2-4.2-3.1c-2.3-1.4-4.7-2.3-7.1-2.7c-2.4-0.4-4.7-0.4-6.9,0.1c-2.2,0.5-4.2,1.4-6.1,2.8
		c-1.9,1.4-3.4,3.1-4.7,5.3c-1.4,2.3-2.1,4.7-2.1,7.2c0,2.5,0.4,4.9,1.1,7.4c0.7,2.5,1.6,5,2.8,7.5c1.1,2.5,2.1,4.9,2.9,7.2
		c0.8,2.3,1.3,4.6,1.5,6.7c0.2,2.1-0.2,4.1-1.3,5.9c-0.6,1-1.3,1.8-2.3,2.7c-1,0.8-2.2,1.6-3.6,2.4l-8.5-17.1l-13.4,2
		c1.5,3.4,3.5,6.6,6.2,9.4c2.6,2.8,5.5,5.2,8.7,7c2.2,1.3,4.5,2.2,6.9,2.6s4.8,0.5,7.1,0.1c2.3-0.4,4.4-1.2,6.4-2.5
		c2-1.3,3.6-3,4.9-5.2C737.9,160.5,738.6,157.9,738.6,155.2"/>
	<path class="st0" d="M168.9,273.9l-19.2,34.2c0,0-12.5-0.6-25.2-0.6c0,0-1,40-1,87.9c0,47.9,1,102.3,1,102.3H79.4
		c0,0,1-54.3,1-102.3c0-47.9-1-87.9-1-87.9c-20.1,0-42.2,1-42.2,1l16-34.5H168.9z"/>
	<path class="st0" d="M278.2,272.3c0,0,12.8,78,24.9,143.2c7.7,40.3,16,80.5,16,80.5l-45.7,3.2c0,0-5.8-39.3-10.2-64.9H228
		c-4.2,25.6-8,61.7-8,61.7l-35.8,3.2c0,0,8.3-38.7,16.3-83.7c11.2-63.6,23.7-141.6,23.7-141.6L278.2,272.3z M245,325.6l-12.1,76.7
		h25.9L245,325.6z"/>
	<path class="st0" d="M390.4,272.3l11.2,81.8c5.1,36.1,9.9,71,9.9,71s5.4-34.8,10.9-71c5.8-39.3,11.5-80.2,11.5-80.2l36.1-1.6
		c0,0-9.6,47.6-18.9,98.4C440.2,430.8,429,496,429,496l-49.9,3.2c0,0-9.3-67.8-18.5-128.5c-7.7-51.1-15.3-96.8-15.3-96.8
		L390.4,272.3z"/>
	<path class="st0" d="M609.3,273.9l-20.8,34.2c0,0-14.4-0.6-31-0.6v59.1c23.7,0,47-0.6,47-0.6l-17.6,33.2c0,0-13.4-0.6-29.4-0.6V464
		c26.8,0,53.7-0.6,53.7-0.6l-17.9,34.2h-78.9c0,0,1-56.6,1-111.9c0-56.6-1-111.9-1-111.9H609.3z"/>
	<path class="st0" d="M711.3,272.3c18.2,0,32.6,2.9,41.9,9c10.5,6.7,21.4,21.7,21.4,41.5c0,28.1-16.6,47.3-31.6,55.9
		c0,0,7.7,26.5,19.2,58.8c9.3,25.6,22.4,58.5,22.4,58.5l-48.6,3.2l-31.6-94.3v42.2c0,24.3,0.6,50.5,0.6,50.5h-45.4
		c0,0,1-53.7,1-112.8c0-53.4-1-110.9-1-110.9S682.2,272.3,711.3,272.3 M704.2,378.7c0,0,5.8-1.3,13.4-3.5c3.8-1,13.7-15,13.7-34.2
		c0-29.1-13.4-33.2-23-33.2c-1.6,0-2.6,0-4.2,0.3V378.7z"/>
	<path class="st0" d="M962.8,273.9c0,0-1,57.8-1,108.7c0,59.8,1,113.5,1,113.5l-49.2,3.2c0,0-14.4-44.1-28.1-86
		c-12.5-38-24.6-74.5-24.6-74.5c0,77.7,1.9,158.8,1.9,158.8h-32.6c0,0,1.6-117,1.6-217.3l-2.2-6.4h53.7c0,0,11.5,36.1,23.7,72.9
		c12.5,38,25.9,76.4,25.9,76.4c0-80.9-1.9-149.3-1.9-149.3H962.8z"/>
	<polygon class="st0" points="218.6,595 225.4,595 225.4,618.6 236.4,618.6 236.4,624.7 218.6,624.7 	"/>
	<path class="st0" d="M246.1,609.9c0-8.4,5.9-15.7,15.8-15.7c10,0,15.8,7.2,15.8,15.7c0,8.4-5.9,15.7-15.8,15.7
		C252,625.5,246.1,618.3,246.1,609.9 M270.6,609.9c0-5.2-3-9.5-8.7-9.5c-5.7,0-8.7,4.4-8.7,9.5c0,5.2,3,9.5,8.7,9.5
		C267.6,619.4,270.6,615,270.6,609.9"/>
	<polygon class="st0" points="290.2,595 297.3,595 307.6,614.2 307.6,595 314.1,595 314.1,624.7 307.1,624.7 296.8,605.5 
		296.8,624.7 290.2,624.7 	"/>
	<path class="st0" d="M328.3,595h11.2c9.5,0,15.1,6.8,15.1,14.8c0,8-5.5,14.8-15.1,14.8h-11.2V595z M338.9,618.9
		c5.8,0,8.7-4.4,8.7-9.1c0-4.7-2.8-9.1-8.7-9.1h-3.7v18.1H338.9z"/>
	<path class="st0" d="M365.5,609.9c0-8.4,5.9-15.7,15.8-15.7c10,0,15.8,7.2,15.8,15.7c0,8.4-5.9,15.7-15.8,15.7
		C371.4,625.5,365.5,618.3,365.5,609.9 M390,609.9c0-5.2-3-9.5-8.7-9.5c-5.7,0-8.7,4.4-8.7,9.5c0,5.2,3,9.5,8.7,9.5
		C387,619.4,390,615,390,609.9"/>
	<polygon class="st0" points="409.6,595 416.7,595 427,614.2 427,595 433.5,595 433.5,624.7 426.5,624.7 416.2,605.5 416.2,624.7 
		409.6,624.7 	"/>
	<polygon class="st0" points="476,595.9 494.2,595.9 494.2,601.7 482.9,601.7 482.9,609.7 494.2,609.7 494.2,615.3 482.9,615.3 
		482.9,625.5 476,625.5 	"/>
	<path class="st0" d="M525.1,616.1l5.2,9.4h-7.8l-4.7-8.2h-3.6v8.2h-6.9v-29.7H520c6.2,0,10.6,4.5,10.6,10.7
		C530.7,610.9,528.5,614.4,525.1,616.1 M514.3,611.7h4.7c2.8,0,4.7-2.2,4.7-5.1c0-3-2-5.1-4.7-5.1h-4.7V611.7z"/>
	<polygon class="st0" points="543.4,595.9 561.5,595.9 561.5,601.4 550.3,601.4 550.3,608.1 561.5,608.1 561.5,613.5 550.3,613.5 
		550.3,620 561.5,620 561.5,625.5 543.4,625.5 	"/>
	<polygon class="st0" points="575.4,595.9 593.6,595.9 593.6,601.4 582.3,601.4 582.3,608.1 593.6,608.1 593.6,613.5 582.3,613.5 
		582.3,620 593.6,620 593.6,625.5 575.4,625.5 	"/>
	<polygon class="st0" points="607.4,595.9 614.3,595.9 614.3,607.9 624.6,607.9 624.6,595.9 631.4,595.9 631.4,625.5 624.6,625.5 
		624.6,613.8 614.3,613.8 614.3,625.5 607.4,625.5 	"/>
	<path class="st0" d="M643.9,610.7c0-8.4,5.9-15.7,15.8-15.7c10,0,15.8,7.2,15.8,15.7c0,8.4-5.9,15.7-15.8,15.7
		C649.8,626.4,643.9,619.2,643.9,610.7 M668.4,610.7c0-5.2-3-9.5-8.7-9.5c-5.7,0-8.7,4.4-8.7,9.5c0,5.2,3,9.5,8.7,9.5
		C665.4,620.3,668.4,615.9,668.4,610.7"/>
	<path class="st0" d="M687.4,615.5v-19.6h6.8v19.2c0,3.4,2,5.3,5.1,5.3c3.1,0,5.1-1.9,5.1-5.3v-19.2h6.9v19.6
		c0,6.9-4.7,10.8-12,10.8C692,626.3,687.4,622.4,687.4,615.5"/>
	<path class="st0" d="M722.9,615.8h6.9c0,3.2,1.8,5.1,4.8,5.1c2.5,0,4-1.2,4-3.3c0-1.8-0.9-2.8-3.6-3.8l-5.3-2.1c-4-1.5-6-4.2-6-8.1
		c0-5.2,4.1-8.7,10.5-8.7c6.5,0,10.8,3.7,10.8,9.4h-6.9c0-2.8-1.4-4.3-4.1-4.3c-2.2,0-3.6,1.1-3.6,2.9c0,1.7,1.1,2.7,4.1,3.9l4.9,2
		c4.1,1.6,6,4.4,6,8.3c0,5.6-4.3,9.2-10.9,9.2C727.3,626.4,722.9,622.5,722.9,615.8"/>
	<polygon class="st0" points="757.9,595.9 776.1,595.9 776.1,601.4 764.8,601.4 764.8,608.1 776.1,608.1 776.1,613.5 764.8,613.5 
		764.8,620 776.1,620 776.1,625.5 757.9,625.5 	"/>
</g>
</svg>
