<?xml version="1.0" encoding="utf-8"?>
<!-- Generator: Adobe Illustrator 25.2.0, SVG Export Plug-In . SVG Version: 6.00 Build 0)  -->
<svg version="1.1" id="Layer_1" xmlns="http://www.w3.org/2000/svg" xmlns:xlink="http://www.w3.org/1999/xlink" x="0px" y="0px"
	 viewBox="0 0 2000 2000" style="enable-background:new 0 0 2000 2000;" xml:space="preserve">
<style type="text/css">
	.st0{fill:url(#SVGID_1_);}
	.st1{fill:url(#SVGID_2_);}
	.st2{enable-background:new    ;}
	.st3{fill:#FFFFFF;}
	.st4{fill:#467C96;}
	.st5{fill:none;stroke:#FFFFFF;stroke-width:5;stroke-linecap:square;}
</style>
<radialGradient id="SVGID_1_" cx="997.86" cy="996.61" r="1004.0702" gradientUnits="userSpaceOnUse">
	<stop  offset="0" style="stop-color:#050A53"/>
	<stop  offset="1" style="stop-color:#050A30"/>
</radialGradient>
<rect x="-6.8" y="-6.9" class="st0" width="2009.3" height="2007"/>
<radialGradient id="SVGID_2_" cx="997.855" cy="996.605" r="1001.5452" gradientUnits="userSpaceOnUse">
	<stop  offset="0" style="stop-color:#050A2F"/>
	<stop  offset="1" style="stop-color:#050A30"/>
</radialGradient>
<rect x="-4.3" y="-4.4" class="st1" width="2004.2" height="2001.9"/>
<g>
	<g class="st2">
		<path class="st3" d="M394.6,454.5c15.2,14.7,25.1,36,25.1,60.8c0,21.5-7.7,43.4-25.1,60.3c-15,14.5-35.2,23.7-62.3,23.7
			c-30.2,0-50.7-12.1-62.7-23.7c-15.4-14.5-25.1-36.2-25.1-59.8c0-23.2,10.4-46.6,24.9-61c10.9-10.9,30.9-23.6,63-23.6
			C357.4,431.1,378.4,438.9,394.6,454.5z M296.8,479.2c-7,6.8-14.2,18.6-14.2,36.4c0,14.7,4.8,26.5,14.7,36.2
			c10.4,9.9,22,13.3,34.5,13.3c16.4,0,28-6,35.7-13.8c6.3-6,14-17.4,14-36c0-16.6-6.8-29-14-36.2c-8-7.7-20.8-13.8-35.5-13.8
			C318.1,465.4,305.5,470.5,296.8,479.2z"/>
		<path class="st3" d="M508.5,434.8v129.6h50v31.4h-87.1v-161H508.5z"/>
		<path class="st3" d="M654.2,434.8c21.2,0,43.7,3.1,63.5,22.2c14.2,13.8,23.2,32.6,23.2,57.7c0,25.3-8.7,43.7-22,57
			c-22.2,22.4-50,24.1-63.5,24.1h-52.1v-161H654.2z M640.5,564.3h9.9c7.7,0,24.6-0.7,36.7-10.9c8.7-7.2,15.7-21,15.7-38.8
			c0-17.4-7-28.5-13.3-34.8c-12.1-12.1-27.8-13.8-39.1-13.8h-9.9L640.5,564.3L640.5,564.3z"/>
	</g>
	<g class="st2">
		<path class="st3" d="M301.2,743.6c8.7,0,28.5,0.5,41,12.3c10.4,9.9,11.6,23.4,11.6,30.4c0,6.3-1,13.5-5.3,20.5
			c-4.1,6.8-9.6,10.1-13.5,11.8c7.7,1.2,16.4,5.1,22.2,10.9c5.3,5.3,10.4,14.5,10.4,28.7c0,16.2-6.3,26.3-12.5,32.6
			c-13.3,12.8-32.6,13.8-42.5,13.8h-60.6v-161H301.2z M288.6,809h6c5.1,0,13.5-0.7,18.8-4.6c3.4-2.4,6.5-7.2,6.5-14.2
			s-3.4-11.3-6.3-13.5c-5.3-4.1-12.5-4.1-19.3-4.1h-5.8V809z M288.6,875.6h8.9c9.4,0,20.8-0.2,27.5-6.5c3.4-3.1,5.3-7.7,5.3-13.5
			c0-6.5-2.6-10.9-5.1-13c-6.5-6-19.1-6-26.5-6h-10.1L288.6,875.6L288.6,875.6z"/>
		<path class="st3" d="M475.6,743.6c20.5,0,33.3,6.8,41,14c6.8,6.5,14,18.1,14,36c0,10.1-2.2,22.7-12.5,32.8
			c-5.5,5.3-13.5,10.1-22.4,12.3l49.5,65.9h-45.4l-43.4-63.5v63.5h-37.2v-161H475.6z M456.3,816.8h8.5c6.8,0,15.9-0.7,22.2-7
			c2.6-2.7,6-7.7,6-15.7c0-9.2-4.3-14-7.5-16.4c-6-4.6-15.7-5.1-20.5-5.1h-8.7V816.8z"/>
		<path class="st3" d="M732.2,763.4c15.2,14.7,25.1,36,25.1,60.8c0,21.5-7.7,43.4-25.1,60.3c-15,14.5-35.2,23.7-62.3,23.7
			c-30.2,0-50.7-12.1-62.7-23.7c-15.4-14.5-25.1-36.2-25.1-59.8c0-23.2,10.4-46.6,24.9-61c10.9-10.9,30.9-23.7,63-23.7
			C695,740,716,747.7,732.2,763.4z M634.4,788c-7,6.8-14.2,18.6-14.2,36.4c0,14.7,4.8,26.5,14.7,36.2c10.4,9.9,22,13.3,34.5,13.3
			c16.4,0,28-6,35.7-13.8c6.3-6,14-17.4,14-36c0-16.7-6.8-29-14-36.2c-8-7.7-20.8-13.8-35.5-13.8C655.7,774.3,643.1,779.3,634.4,788
			z"/>
		<path class="st3" d="M801.4,904.6l25.8-161h30.9l40.1,96.3l40.1-96.3h30.9l25.8,161h-37.2l-12.8-96l-40.3,96h-13l-40.3-96
			l-12.8,96H801.4z"/>
		<path class="st3" d="M1103.3,743.6c14,0,29.4,1.9,42.2,13.3c13.8,12.1,15.7,28,15.7,39.1c0,20.3-7.7,31.6-13.8,37.9
			c-12.8,13-29.7,14.2-41,14.2h-22.7v56.5h-37.2v-161H1103.3z M1083.7,817.7h13.3c5.1,0,14-0.2,20-6c3.4-3.4,6-8.9,6-15.9
			c0-6.8-2.4-12.3-6-15.7c-5.6-5.3-13.5-6-20.8-6h-12.6V817.7z"/>
		<path class="st3" d="M1272.4,775v129.6h-37.2V775h-35v-31.4h107.1V775H1272.4z"/>
		<path class="st3" d="M1488.7,763.4c15.2,14.7,25.1,36,25.1,60.8c0,21.5-7.7,43.4-25.1,60.3c-15,14.5-35.2,23.7-62.3,23.7
			c-30.2,0-50.7-12.1-62.7-23.7c-15.4-14.5-25.1-36.2-25.1-59.8c0-23.2,10.4-46.6,24.9-61c10.9-10.9,30.9-23.7,63-23.7
			C1451.5,740,1472.5,747.7,1488.7,763.4z M1390.9,788c-7,6.8-14.2,18.6-14.2,36.4c0,14.7,4.8,26.5,14.7,36.2
			c10.4,9.9,22,13.3,34.5,13.3c16.4,0,28-6,35.7-13.8c6.3-6,14-17.4,14-36c0-16.7-6.8-29-14-36.2c-8-7.7-20.8-13.8-35.5-13.8
			C1412.2,774.3,1399.6,779.3,1390.9,788z"/>
		<path class="st3" d="M1565.4,904.6v-161h32.3l87.4,103.8V743.6h37.2v161h-32.3l-87.4-104.2v104.2H1565.4z"/>
	</g>
	<g class="st2">
		<path class="st4" d="M392.7,1212.1v3.4c-6.4,1.5-10.9,6.4-13.5,14.9L347,1333.9h-1.4h-1.4l-29.7-87.9l-27.1,87.9H286h-1.4
			l-36.2-107.4c-2.4-7.1-6.3-10.7-11.8-10.9v-3.4c4.7,0.3,10.8,0.5,18.3,0.5c8.2,0,14.4-0.2,18.4-0.5v3.4c-3.1,0.2-5.2,0.8-6.5,1.7
			c-1.2,0.9-1.9,2.3-1.9,4.3c0,1.8,0.6,4.6,1.9,8.4l24.9,76.2l20.8-66.1l-4.6-13.5c-2.3-7.1-5.6-10.7-10.1-10.9v-3.4
			c4.1,0.3,9.6,0.5,16.6,0.5c9.8,0,17.1-0.2,21.9-0.5v3.4c-4.3,0.2-7.3,0.7-9,1.4s-2.6,2.3-2.6,4.7c0,2.1,0.6,4.8,1.7,8.2l24.6,76
			l21-66.1c1.8-5.6,2.7-10.2,2.7-13.8c0-3.8-1.1-6.4-3.4-7.9c-2.3-1.5-6-2.4-11.1-2.5v-3.4c6.5,0.3,13,0.5,19.6,0.5
			C385,1212.6,389.3,1212.4,392.7,1212.1z"/>
		<path class="st4" d="M421.6,1317.1c0,4.7,1,7.9,2.9,9.7s5.3,2.7,10.1,2.7v3.6c-10.5-0.5-17.4-0.7-20.7-0.7s-10.2,0.2-20.7,0.7
			v-3.6c4.8,0,8.1-0.9,10.1-2.7c1.9-1.8,2.9-5,2.9-9.7v-53.4c0-5.2-1-9.1-2.9-11.4c-1.9-2.4-5.3-3.6-10.1-3.6v-3.6
			c3.6,0.3,7.2,0.5,10.6,0.5c7.2,0,13.1-0.8,17.8-2.4L421.6,1317.1L421.6,1317.1z M420.4,1205.6c2.2,2.2,3.2,4.7,3.2,7.7
			c0,3-1.1,5.5-3.2,7.7c-2.2,2.2-4.7,3.2-7.7,3.2s-5.5-1.1-7.7-3.2c-2.2-2.2-3.2-4.7-3.2-7.7c0-3,1.1-5.5,3.2-7.7s4.7-3.2,7.7-3.2
			S418.2,1203.4,420.4,1205.6z"/>
		<path class="st4" d="M518.8,1249.2c2.2,2.3,3.7,5.1,4.6,8.5s1.4,8,1.4,13.8v45.6c0,4.7,1,7.9,2.9,9.7c1.9,1.8,5.3,2.7,10.1,2.7
			v3.6c-10.5-0.5-17.3-0.7-20.5-0.7c-3.2,0-9.6,0.2-19.1,0.7v-3.6c4.2,0,7.1-0.9,8.8-2.7c1.6-1.8,2.5-5,2.5-9.7v-49.3
			c0-6.4-0.9-11.2-2.7-14.6s-5.5-5-11.1-5c-4.7,0-8.8,1.4-12.5,4.1s-6.5,6.5-8.5,11.2c-2,4.7-3,10-3,15.8v37.9
			c0,4.7,0.8,7.9,2.5,9.7c1.6,1.8,4.6,2.7,8.8,2.7v3.6c-9.6-0.5-15.9-0.7-19.1-0.7s-10,0.2-20.5,0.7v-3.6c4.8,0,8.1-0.9,10.1-2.7
			c1.9-1.8,2.9-5,2.9-9.7v-53.4c0-5.2-1-9.1-2.9-11.4c-1.9-2.4-5.3-3.6-10.1-3.6v-3.6c3.6,0.3,7.2,0.5,10.6,0.5
			c7.2,0,13.1-0.8,17.8-2.4v20.2c2.8-7.3,6.8-12.6,11.9-15.8c5.1-3.2,10.8-4.9,17.2-4.9C508.6,1242.7,514.7,1244.8,518.8,1249.2z"/>
		<path class="st4" d="M619.3,1312.5c-2,6.3-5.9,11.6-11.5,16.1s-12.4,6.8-20.4,6.8c-8.1,0-15.1-1.8-21-5.6
			c-5.9-3.7-10.5-8.9-13.6-15.5s-4.7-14.4-4.7-23.1c0-9.9,1.6-18.5,4.8-25.8s7.7-12.9,13.5-16.8c5.8-3.9,12.6-5.9,20.3-5.9
			c10.2,0,18.1,3.1,23.7,9.3c5.5,6.2,8.3,15.6,8.3,28.3h-53.5c-0.3,3.2-0.5,6.8-0.5,10.9c0,7.5,1.2,14.1,3.7,19.6s5.7,9.9,9.7,12.9
			c4,3,8.3,4.5,12.7,4.5c5.5,0,10.3-1.3,14.5-3.9c4.2-2.6,7.7-7,10.6-13.2L619.3,1312.5z M572.2,1253.8c-3.9,5.2-6.3,13-7.2,23.2
			h37.2c0.2-8.9-1-16.3-3.8-22.2c-2.8-5.9-6.9-8.9-12.4-8.9C580.7,1245.9,576.1,1248.5,572.2,1253.8z"/>
		<path class="st4" d="M801.7,1215.9c4.7,4.2,7.1,9.8,7.1,16.8c0,5.5-1.5,10.2-4.4,14.3s-6.9,7.3-11.8,9.7c-4.3,2.1-12.8,5-25.3,8.9
			c6.4,2.7,11.1,6.6,14.1,11.7s4.5,10.8,4.5,17.3c0,7.1-2.1,13.7-6.3,20s-10.2,11.3-18.1,15.1c-7.9,3.8-17.1,5.7-27.7,5.7
			c-9.9,0-19.1-1.7-27.6-5.2c-8.5-3.5-15.2-8.4-20.2-14.9c-5-6.4-7.5-13.9-7.5-22.5c0-7.5,1.8-13.9,5.5-19s7.9-9.1,12.7-11.8
			c4.8-2.7,9.2-4.5,13.3-5.6c-5.6-2.4-9.8-5.6-12.8-9.6c-3-4-4.4-8.1-4.4-12.5c0-3.8,1.1-7.3,3.3-10.5c2.2-3.2,5.5-5.9,9.9-7.9
			c4.4-2,9.6-3,15.6-3c7.6,0,13.5,1.7,17.8,5.1c2,1.7,3.6,3.6,4.7,5.7c1.1,2.1,1.6,4.1,1.6,6.1c0,2.7-1,4.9-2.9,6.6
			c-1.9,1.7-4.2,2.5-6.7,2.5c-2.4,0-4.5-0.8-6.2-2.3c-1.8-1.5-2.7-3.6-2.7-6.2c0-2.5,0.8-4.6,2.6-6.4s3.9-2.8,6.5-3
			c-0.6-1.5-2-2.8-4.3-3.8c-2.3-1.1-5.2-1.6-8.6-1.6c-5.9,0-10.7,1.8-14.3,5.4c-3.7,3.6-5.5,8.6-5.5,14.9c0,7.6,2.9,14.1,8.7,19.5
			c4-0.7,7.5-1,10.6-1c2,0,3.7,0.3,5,1s1.9,1.7,1.9,2.9c0,1-0.4,1.8-1.3,2.4c-0.8,0.6-2,0.8-3.5,0.8c-1.8,0-3.7-0.3-5.6-1
			c-1.9-0.7-4.2-1.6-6.8-2.7c-14.8,4.4-22.2,13.8-22.2,28c0,7.6,2,14.2,6,19.8c4,5.6,9.5,9.8,16.4,12.7s14.7,4.4,23.4,4.4
			c8.1,0,15.6-1.3,22.5-3.8c6.9-2.6,12.3-6.2,16.4-10.9c4-4.7,6.1-10.2,6.1-16.5c0-4.6-1.2-9.2-3.6-13.8c-2.4-4.7-7-8.3-13.7-10.9
			c-8.9,2.7-15.4,4.9-19.6,6.5c-4.8,1.8-8.5,3.9-11.1,6.2c-2.6,2.3-3.9,5.2-3.9,8.6c0,4.1,1.7,7.4,5,9.9c3.4,2.5,6.9,3.8,10.7,3.8
			c1.9,0,4-0.3,6.3-1c2.3-0.7,3.6-1.6,3.9-2.7c-2.2-0.4-4-1.4-5.6-2.7c-1.6-1.4-2.4-3.4-2.4-6c0-2.7,0.9-4.9,2.7-6.5
			c1.8-1.6,4-2.4,6.8-2.4s4.9,0.8,6.6,2.6c1.7,1.7,2.5,3.9,2.5,6.7c0,4.6-2.1,8.1-6.3,10.8s-8.9,3.9-14,3.9c-5.6,0-10.5-1.7-14.8-5
			s-6.4-8.3-6.4-14.9c0-5.8,2-10.7,5.9-14.8s9.8-7.4,17.7-10.2l12.1-3.6c6.8-1.9,12.5-3.6,17.1-5.1c4.5-1.5,8.7-3.1,12.5-4.8
			c5.5-2.5,9.3-5.1,11.4-7.7c2.2-2.6,3.2-5.5,3.2-8.7c0-4.8-2-8.8-5.9-12.2s-8.6-5-13.9-5c-2.8,0-4.5,0.5-5.1,1.5
			c1.5,0.7,2.7,1.8,3.5,3.3c0.8,1.5,1.3,3.1,1.3,4.5c0,2.4-0.9,4.4-2.8,6s-4.1,2.4-6.8,2.4c-2.4,0-4.5-0.7-6.3-2.2s-2.7-3.6-2.7-6.3
			c0-4.1,1.9-7.1,5.7-9c3.8-1.9,8.2-2.8,13.1-2.8C791,1209.7,796.9,1211.8,801.7,1215.9z"/>
		<path class="st4" d="M935.5,1212.6c4.8,1.9,9.5,4.7,14,8.2c1.2,1,2.3,1.5,3.2,1.5c2.3,0,3.8-3.4,4.4-10.2h3.9
			c-0.5,7.4-0.7,20.5-0.7,39.3h-3.9c-1.2-7.4-2.4-12.7-3.4-16c-1-3.2-2.7-6.3-5.1-9.3c-3.4-4.4-7.8-7.8-13.1-10s-11-3.3-17.2-3.3
			c-7.4,0-13.9,2.4-19.4,7.3c-5.5,4.9-9.8,11.9-12.9,20.9s-4.6,19.7-4.6,31.8c0,12.4,1.7,23.1,5,31.9c3.3,8.9,7.9,15.6,13.8,20.2
			c5.9,4.6,12.5,6.9,19.9,6.9c5.7,0,11.2-1.1,16.6-3.2s9.6-5.4,12.6-9.7c2.3-3.2,3.9-6.6,5-10.2c1-3.6,2-9.2,2.9-16.7h3.9
			c0,19.6,0.2,33.2,0.7,41h-3.9c-0.3-3.6-0.8-6.2-1.5-7.8c-0.6-1.5-1.5-2.3-2.7-2.3c-0.9,0-2.1,0.5-3.6,1.4
			c-5.1,3.7-10,6.4-14.7,8.3s-10.3,2.8-16.9,2.8c-10.8,0-20.3-2.4-28.4-7.3c-8.1-4.9-14.5-12-19-21.3s-6.8-20.3-6.8-33.2
			c0-12.5,2.3-23.6,6.9-33.3c4.6-9.7,11-17.2,19.3-22.5c8.2-5.3,17.6-8,28.1-8C924.9,1209.7,930.7,1210.7,935.5,1212.6z"/>
		<path class="st4" d="M1003.9,1263.2c2.8-7.2,6.8-12.4,11.9-15.6c5.1-3.2,10.8-4.9,17.2-4.9c8,0,14,2.2,18.1,6.5
			c2.2,2.3,3.7,5.1,4.6,8.5s1.4,8,1.4,13.8v45.6c0,4.7,1,7.9,2.9,9.7s5.3,2.7,10.1,2.7v3.6c-10.5-0.5-17.3-0.7-20.5-0.7
			c-3.2,0-9.6,0.2-19.1,0.7v-3.6c4.2,0,7.1-0.9,8.8-2.7c1.7-1.8,2.5-5,2.5-9.7v-49.3c0-6.4-0.9-11.2-2.7-14.6s-5.5-5-11.1-5
			c-4.7,0-8.8,1.3-12.4,3.9s-6.4,6.3-8.5,11c-2,4.7-3.1,10.1-3.1,16v38.1c0,4.7,0.8,7.9,2.5,9.7c1.7,1.8,4.6,2.7,8.8,2.7v3.6
			c-9.6-0.5-15.9-0.7-19.1-0.7s-10,0.2-20.5,0.7v-3.6c4.8,0,8.1-0.9,10.1-2.7c1.9-1.8,2.9-5,2.9-9.7v-97.3c0-5.2-1-9.1-2.9-11.4
			c-1.9-2.4-5.3-3.6-10.1-3.6v-3.6c3.6,0.3,7.2,0.5,10.6,0.5c7.2,0,13.1-0.8,17.8-2.4L1003.9,1263.2L1003.9,1263.2z"/>
		<path class="st4" d="M1151.7,1312.5c-2.1,6.3-5.9,11.6-11.5,16.1s-12.4,6.8-20.4,6.8c-8.1,0-15.1-1.8-21-5.6
			c-5.9-3.7-10.4-8.9-13.6-15.5s-4.7-14.4-4.7-23.1c0-9.9,1.6-18.5,4.8-25.8c3.2-7.3,7.7-12.9,13.5-16.8s12.6-5.9,20.3-5.9
			c10.2,0,18.1,3.1,23.7,9.3c5.5,6.2,8.3,15.6,8.3,28.3h-53.4c-0.3,3.2-0.5,6.8-0.5,10.9c0,7.5,1.2,14.1,3.7,19.6
			c2.4,5.6,5.7,9.9,9.7,12.9c4,3,8.3,4.5,12.7,4.5c5.5,0,10.3-1.3,14.5-3.9c4.2-2.6,7.7-7,10.6-13.2L1151.7,1312.5z M1104.5,1253.8
			c-3.9,5.2-6.3,13-7.2,23.2h37.2c0.2-8.9-1.1-16.3-3.8-22.2c-2.8-5.9-6.9-8.9-12.4-8.9C1113,1245.9,1108.4,1248.5,1104.5,1253.8z"
			/>
		<path class="st4" d="M1238.1,1312.5c-2.1,6.3-5.9,11.6-11.5,16.1s-12.4,6.8-20.4,6.8c-8.1,0-15.1-1.8-21-5.6
			c-5.9-3.7-10.4-8.9-13.6-15.5s-4.7-14.4-4.7-23.1c0-9.9,1.6-18.5,4.8-25.8c3.2-7.3,7.7-12.9,13.5-16.8s12.6-5.9,20.3-5.9
			c10.2,0,18.1,3.1,23.7,9.3c5.5,6.2,8.3,15.6,8.3,28.3h-53.4c-0.3,3.2-0.5,6.8-0.5,10.9c0,7.5,1.2,14.1,3.7,19.6
			c2.4,5.6,5.7,9.9,9.7,12.9c4,3,8.3,4.5,12.7,4.5c5.5,0,10.3-1.3,14.5-3.9c4.2-2.6,7.7-7,10.6-13.2L1238.1,1312.5z M1190.9,1253.8
			c-3.9,5.2-6.3,13-7.2,23.2h37.2c0.2-8.9-1.1-16.3-3.8-22.2c-2.8-5.9-6.9-8.9-12.4-8.9C1199.4,1245.9,1194.8,1248.5,1190.9,1253.8z
			"/>
		<path class="st4" d="M1291.9,1244.5c3.2,1.2,5.8,2.7,7.7,4.4c1.2,0.9,2.3,1.4,3.1,1.4c2.1,0,3.3-2.5,3.8-7.5h3.9
			c-0.5,5.6-0.7,15.3-0.7,29h-3.9c-1.2-7.5-3.7-13.7-7.3-18.6s-8.9-7.3-16-7.3c-4.1,0-7.5,1.2-10.1,3.5c-2.6,2.3-3.9,5.6-3.9,9.7
			c0,4,1.4,7.3,4.1,10c2.7,2.7,7.1,5.9,13.2,9.7c1,0.6,2.6,1.5,4.6,2.9c5.2,3.4,9.4,6.4,12.6,9.1c3.2,2.6,5.8,5.6,7.8,9.1
			s3,7.3,3,11.8c0,7.5-2.8,13.4-8.4,17.6s-12.6,6.3-20.8,6.3c-5.1,0-9.6-0.8-13.5-2.4c-2.5-1.2-4.8-2.8-7-4.6
			c-0.5-0.4-1-0.7-1.5-0.7c-0.8,0-1.5,0.6-2.1,1.7c-0.6,1.1-1.1,2.7-1.4,4.8h-3.9c0.4-6.5,0.7-17.9,0.7-34.2h3.9
			c1.2,10.7,3.5,18.7,6.8,24c3.3,5.3,8.9,7.9,16.9,7.9c4,0,7.5-1.3,10.6-3.9c3.1-2.6,4.6-6.7,4.6-12.3c0-4.4-1.5-8.2-4.5-11.3
			c-3-3.1-7.9-6.8-14.8-11.1c-5.6-3.5-9.9-6.4-12.9-8.7c-3-2.3-5.6-5.1-7.6-8.4c-2.1-3.3-3.1-7.2-3.1-11.6c0-7.2,2.4-12.6,7.2-16.4
			c4.8-3.8,10.8-5.6,18.1-5.6C1285,1242.7,1288.7,1243.3,1291.9,1244.5z"/>
		<path class="st4" d="M1400.8,1312.5c-2.1,6.3-5.9,11.6-11.5,16.1s-12.4,6.8-20.4,6.8c-8.1,0-15.1-1.8-21-5.6
			c-5.9-3.7-10.4-8.9-13.6-15.5s-4.7-14.4-4.7-23.1c0-9.9,1.6-18.5,4.8-25.8c3.2-7.3,7.7-12.9,13.5-16.8c5.8-3.9,12.6-5.9,20.3-5.9
			c10.2,0,18.1,3.1,23.7,9.3c5.5,6.2,8.3,15.6,8.3,28.3h-53.4c-0.3,3.2-0.5,6.8-0.5,10.9c0,7.5,1.2,14.1,3.7,19.6
			c2.4,5.6,5.7,9.9,9.7,12.9c4,3,8.3,4.5,12.7,4.5c5.5,0,10.3-1.3,14.5-3.9c4.2-2.6,7.7-7,10.6-13.2L1400.8,1312.5z M1353.7,1253.8
			c-3.9,5.2-6.3,13-7.2,23.2h37.2c0.2-8.9-1.1-16.3-3.8-22.2c-2.8-5.9-6.9-8.9-12.4-8.9C1362.2,1245.9,1357.6,1248.5,1353.7,1253.8z
			"/>
		<path class="st4" d="M1541.4,1280c5.3,5.5,8,12.2,8,19.9c0,6.5-1.7,12.2-4.9,17.2c-3.3,5-8,8.9-14.2,11.7
			c-6.2,2.8-13.4,4.2-21.9,4.2c-3.1,0-5.7-0.1-7.9-0.2c-7.3-0.2-14.5-0.3-21.5-0.3c-9.3,0-16.4,0.2-21.2,0.5v-3.4
			c4.1-0.2,7.1-0.7,9-1.4c1.9-0.7,3.2-2,3.8-3.9c0.7-1.9,1-5.1,1-9.4v-84.7c0-4.3-0.3-7.5-1-9.4c-0.7-1.9-2-3.2-3.8-3.9
			s-4.9-1.1-9-1.4v-3.4c4.8,0.3,11.7,0.5,20.8,0.5l18.4-0.2c2.2-0.1,4.6-0.2,7.3-0.2c11.6,0,20.5,2.4,26.7,7.3
			c6.2,4.9,9.3,11.4,9.3,19.5c0,6.6-2.1,12.5-6.2,17.8c-4.2,5.2-10.7,9.2-19.7,11.9v0.3C1527.1,1270.8,1536,1274.5,1541.4,1280z
			 M1492.3,1216.7c-1.8,0.8-3,2.2-3.7,4.3s-1,5.1-1,9.2v38.6h11.4c9.3,0,15.8-2.5,19.6-7.6c3.7-5.1,5.6-11.8,5.6-20.2
			c0-8.5-1.9-14.9-5.6-19.1c-3.8-4.2-9.8-6.3-18.3-6.3C1496.7,1215.5,1494,1215.9,1492.3,1216.7z M1532.3,1299.2
			c0-9-2.4-15.8-7.3-20.5s-12.6-7-23.1-7h-14.3v43.2c0,4.1,0.3,7.1,1,9.1c0.7,1.9,1.9,3.3,3.7,4s4.5,1.1,8.1,1.1
			C1521.7,1329.1,1532.3,1319.1,1532.3,1299.2z"/>
		<path class="st4" d="M1568.9,1328.8c-3.5-3.6-5.2-8.6-5.2-14.9c0-5.1,1.4-9.3,4.2-12.6c2.8-3.3,6.1-5.9,9.9-7.9
			c3.8-1.9,8.8-4,15.1-6.2c6.4-2.2,11.1-4.2,14.2-6c3.1-1.8,4.6-4.3,4.6-7.3v-10.6c0-6.6-1.4-11.1-4.2-13.6
			c-2.8-2.4-6.7-3.7-11.7-3.7c-8,0-13.6,2.1-16.9,6.2c2.3,0.6,4.2,1.8,5.7,3.6c1.5,1.8,2.3,4.1,2.3,6.8c0,2.8-0.9,5.1-2.7,6.7
			c-1.8,1.7-4.2,2.5-7,2.5c-3.2,0-5.6-1-7.2-3c-1.6-2-2.4-4.4-2.4-7.3c0-2.7,0.7-5,2-6.8c1.3-1.8,3.3-3.6,5.9-5.5
			c2.7-1.9,6.2-3.5,10.4-4.8c4.2-1.2,8.8-1.9,13.8-1.9c8.9,0,15.6,2.1,20.2,6.3c2.8,2.6,4.8,5.8,5.7,9.5s1.4,8.6,1.4,14.6v47.5
			c0,2.8,0.4,4.9,1.2,6.2c0.8,1.2,2.2,1.9,4.1,1.9c1.4,0,2.7-0.3,3.8-0.9c1.2-0.6,2.5-1.5,3.8-2.7l1.9,2.9c-3,2.3-5.5,3.9-7.6,4.9
			c-2.1,1-4.8,1.4-7.9,1.4c-5.5,0-9.3-1.4-11.4-4.1c-2.2-2.7-3.2-6.4-3.2-11.1c-3.4,5.7-7.3,9.7-11.8,11.9c-4.4,2.2-9.4,3.3-15,3.3
			C1577.7,1334.2,1572.4,1332.4,1568.9,1328.8z M1611.7,1314.4v-33.5c-1,1.6-2.4,2.9-4.3,3.9c-1.8,1-4.6,2.4-8.4,4.1
			c-4.3,1.8-7.8,3.6-10.5,5.2c-2.7,1.7-5,3.9-6.9,6.8c-1.9,2.8-2.9,6.5-2.9,10.9c0,5.1,1.2,9,3.8,11.6c2.5,2.6,5.8,3.9,9.9,3.9
			C1599.9,1327.4,1606.4,1323.1,1611.7,1314.4z"/>
		<path class="st4" d="M1711.4,1246.6c2.9,2.6,4.3,5.8,4.3,9.6c0,3-0.9,5.5-2.7,7.6s-4.1,3.2-7.1,3.2c-2.5,0-4.6-0.8-6.4-2.4
			c-1.8-1.6-2.7-3.8-2.7-6.5c0-3.8,1.9-6.8,5.8-9.2c-0.8-1.1-2-1.7-3.6-1.7c-4.4,0-8.5,1.7-12.1,5.2c-3.7,3.5-6.5,7.7-8.5,12.7
			s-3.1,9.7-3.1,14.2v36.2c0,5.2,1.5,8.9,4.5,10.9c3,2.1,7.5,3.1,13.6,3.1v3.6l-4.1-0.2c-11.6-0.3-19-0.5-22.2-0.5
			c-3,0-9.7,0.2-20.2,0.7v-3.6c4.8,0,8.1-0.9,10.1-2.7c1.9-1.8,2.9-5,2.9-9.7v-53.4c0-5.2-1-9.1-2.9-11.4c-1.9-2.4-5.3-3.6-10.1-3.6
			v-3.6c3.6,0.3,7.2,0.5,10.6,0.5c7.2,0,13.1-0.8,17.8-2.4v21.3c2.1-5.7,5.3-10.8,9.8-15.2s9.5-6.7,14.9-6.7
			C1704.7,1242.7,1708.5,1244,1711.4,1246.6z"/>
	</g>
	<line id="Line_9" class="st5" x1="250.6" y1="1053.8" x2="1725" y2="1053.8"/>
	<g class="st2">
		<path class="st3" d="M795,1506.4h-2.6c0.5-2.6,0.8-5.1,0.8-7.5c0-5.2-1.5-9.4-4.6-12.8c-3.1-3.3-7.8-5-14.1-5
			c-5.5,0-10,1.4-13.4,4.2c-3.4,2.8-5.1,7-5.1,12.5c0,4.3,1.3,8.2,4,11.8s6.7,7.9,12,12.8c3.8,3.4,6.8,6.4,9.1,9
			c2.3,2.6,4.2,5.4,5.8,8.4c1.6,3.1,2.4,6.4,2.4,9.9c0,5.7-1.7,10.5-4.9,14.4s-7.5,6.8-12.6,8.6c-5.1,1.8-10.4,2.8-15.8,2.8
			c-4.7,0-8.4-0.6-11.1-1.7s-5.3-2.6-7.6-4.3c-1.7-1.3-3.2-2-4.7-2c-1,0-1.9,0.5-2.6,1.6c-0.7,1.1-1.6,2.9-2.8,5.5h-2.6
			c1.4-3.3,2.8-7.3,4.2-12.1c1.4-4.7,3-11.2,4.8-19.6h2.6c-0.8,4.1-1.2,7.4-1.2,9.8c0,6.4,1.8,11.4,5.3,14.9
			c3.5,3.5,8.9,5.3,16.2,5.3c6,0,10.7-1.4,14.2-4.1s5.2-6.8,5.2-12.4c0-3.3-0.7-6.4-2-9.2c-1.3-2.8-2.9-5.3-4.8-7.4
			c-1.9-2.2-4.5-4.8-7.8-8.1c-3.5-3.3-6.3-6.2-8.4-8.6c-2.1-2.4-3.8-5.1-5.3-8.3s-2.2-6.7-2.2-10.5c0-5.4,1.4-10.1,4.2-14
			c2.8-3.9,6.4-6.8,10.8-8.8c4.4-2,9.1-3,14-3c3.6,0,6.7,0.4,9.3,1.3s5.2,2.3,7.8,4.2c2.1,1.6,3.6,2.4,4.3,2.4c0.7,0,1.4-0.6,2-1.7
			s1.4-2.9,2.3-5.3h2.6C799.6,1487.5,797,1496.5,795,1506.4z"/>
		<path class="st3" d="M807.2,1532.5c3.1-7.9,7.5-14.7,13.3-20.2s12.5-8.2,20.2-8.2c5.6,0,10,1.7,13.2,5.2c3.2,3.5,4.8,8.6,4.8,15.5
			c0,6.9-1.5,14.4-4.6,22.3c-3.1,7.9-7.5,14.7-13.3,20.2s-12.5,8.2-20.2,8.2c-5.6,0-10-1.7-13.2-5.2c-3.2-3.5-4.8-8.6-4.8-15.5
			C802.6,1547.9,804.2,1540.5,807.2,1532.5z M827.2,1515.3c-4,5.7-7.2,12.8-9.6,21.4c-2.4,8.6-3.6,16.8-3.6,24.7
			c0,3.9,0.6,6.8,1.8,8.7c1.2,1.8,3.1,2.8,5.7,2.8c4.5,0,8.7-2.8,12.7-8.6c4-5.7,7.2-12.8,9.6-21.4s3.6-16.8,3.6-24.7
			c0-3.9-0.6-6.8-1.8-8.7c-1.2-1.8-3.1-2.8-5.7-2.8C835.4,1506.8,831.2,1509.6,827.2,1515.3z"/>
		<path class="st3" d="M929.8,1552.3h2.5l-3.3,9.6c-3.2,9-8.5,13.6-15.9,13.6c-1.4,0-2.7-0.3-4-0.9c-1.2-0.6-2.2-1.5-2.8-2.6
			c-0.5-1.2-0.8-2.6-0.8-4.1c0-2.3,0.6-5.9,1.8-10.8l4.1-16.5c-5.1,12.6-10,21.5-14.9,26.9c-4.8,5.4-10.1,8-15.8,8
			c-7.4,0-11.1-3.4-11.1-10.1c0-2.8,0.6-6.1,1.8-9.7l12.8-38.4c0.7-2.1,1-3.7,1-4.9c0-2.2-1-3.3-3.2-3.3c-1.8,0-3.5,1-5.1,3
			c-1.6,2-3.3,5.5-5.1,10.5l-1.7,4.9h-2.5l3.3-9.6c3.2-9,8.5-13.6,15.9-13.6c6.1,0,9.2,2.7,9.2,8.2c0,2.6-0.7,6.1-2.1,10.3
			l-12.5,37.7c-0.9,2.6-1.3,4.8-1.3,6.6c0,3,1.4,4.5,4.2,4.5c3.4,0,7.2-2.5,11.3-7.6c4.1-5.1,8.2-12.1,12.2-21
			c4-9,7.5-19.1,10.5-30.3l1.6-6.4c5-0.2,9-0.8,12-1.8l-16.3,58.3c-0.6,2.3-0.9,4-0.9,5.1c0,2,0.9,3,2.8,3c1.9,0,3.7-1,5.3-3.1
			c1.6-2.1,3.3-5.5,4.9-10.3L929.8,1552.3z"/>
		<path class="st3" d="M954.7,1562.5c-0.3,1.1-0.4,2-0.4,2.9c0,1.8,0.5,3.1,1.6,3.9s2.4,1.3,4.1,1.3c2.2,0,4.2-0.9,6.1-2.8
			s3.8-5.3,5.6-10.3l1.8-5.1h2.5l-2.8,8.3c-1.8,5.4-4.2,9.3-7.2,11.5s-6.6,3.4-10.9,3.4c-4,0-6.9-1-8.8-2.9s-2.9-4.6-2.9-8
			c0-2.3,0.4-4.8,1.2-7.5l14-48.5h-11.8l0.7-2.6h11.8l5.8-20c4.7-0.2,8.7-0.8,11.8-1.8l-6.2,21.9h17.4l-0.4,2.6H970L954.7,1562.5z"
			/>
		<path class="st3" d="M1047.1,1552.3l-3.3,9.6c-3.2,9-8.5,13.6-15.9,13.6c-6.2,0-9.2-2.7-9.2-8.2c0-2.6,0.7-6.1,2.1-10.3l12.5-37.7
			c0.9-2.5,1.3-4.7,1.3-6.6c0-3-1.4-4.5-4.2-4.5c-3.2,0-6.7,2-10.5,6.1s-7.5,9.8-11.3,17.2c-3.8,7.4-7.3,15.9-10.5,25.7l-4.7,16.3
			h-11.5l26.1-87.8c0.4-1.5,0.7-2.7,0.7-3.6c0-1.8-0.7-3.1-2.1-3.9s-3.7-1.2-7-1.2l0.8-2.8c9.1-0.1,17-1.9,23.7-5.4l-19.1,65.3
			c4.7-10.7,9.5-18.4,14.2-23.1s9.9-7.1,15.5-7.1c7.1,0,10.7,3.3,10.7,10c0,2.8-0.7,6.1-2,9.9l-12.8,38.4c-0.7,2.1-1.1,3.8-1.1,5
			c0,2.1,1.1,3.2,3.2,3.2c1.8,0,3.4-1,5.1-3c1.6-2,3.3-5.5,5.1-10.5l1.7-4.9L1047.1,1552.3L1047.1,1552.3z"/>
		<path class="st3" d="M1107.6,1566.2c0,1.8,0.6,3.1,1.9,3.7s3.6,1,7,1.2l-0.5,2.6c-4-0.3-9.6-0.4-16.7-0.4
			c-7.4,0-12.9,0.1-16.7,0.4l0.7-2.6c3.1-0.2,5.4-0.5,6.9-1.1c1.5-0.5,2.8-1.6,3.7-3.1c0.9-1.5,1.8-3.9,2.7-7.2l17.4-65.3
			c0.7-3,1.1-5.1,1.1-6.3c0-1.9-0.6-3.2-1.9-3.8c-1.3-0.6-3.6-1-6.9-1.2l0.7-2.6c3.6,0.3,9.2,0.4,16.7,0.4c7,0,12.6-0.1,16.9-0.4
			l-0.7,2.6c-3.2,0.2-5.6,0.5-7.2,1.1c-1.5,0.5-2.8,1.5-3.7,3c-0.9,1.5-1.8,3.9-2.7,7.2l-17.4,65.3
			C1108,1563.1,1107.6,1565.2,1107.6,1566.2z M1178.1,1480.6c1.3,1.3,1.9,3,1.9,5.1c0,1.9-0.6,3.9-1.9,6c-1.3,2.1-3.2,3.1-5.7,3.1
			c-1.8,0-3.1-0.5-3.9-1.5s-1.2-2.3-1.2-3.8c0-1.2,0.4-2.6,1.2-4.2c0.8-1.5,1.8-2.9,3-4h-0.4c-1.8,0.1-3.3,0.7-4.7,1.8
			c-1.5,1.3-2.7,3.1-3.8,5.3s-2.3,5.6-3.9,9.9c-1.8,5.2-3.6,9.5-5.3,12.8s-3.9,6.4-6.8,9s-6.5,4.2-10.9,4.8c3.2,0.7,5.8,1.7,7.8,2.8
			c1.9,1.2,3.4,3.2,4.5,6.2c1.1,2.9,1.5,7.1,1.3,12.6l-0.5,14.9c-0.1,2.3,0.1,4,0.6,5.1s1.6,1.7,3.4,1.7c2.2,0,4.1-0.8,5.6-2.4
			c1.5-1.6,2.9-4.2,4.2-7.8l2.2-6.7h2.6l-3.4,10.1c-1.7,4.8-3.8,8.4-6.4,10.7c-2.6,2.3-5.8,3.4-9.6,3.4c-8.1,0-11.8-5.1-11.1-15.3
			l0.9-14.9c0.1-1.1,0.1-2.7,0.1-4.7c0-4-0.4-7.1-1.2-9.1c-0.8-2-2-3.7-3.7-5c-3.2,0.8-5.8,1.2-7.5,1.2c-2.7,0-4.1-0.9-4.1-2.6
			s1.3-2.6,3.9-2.6c1.9,0,4.6,0.4,8,1.3c4.5-0.5,8.1-2,11-4.5c2.8-2.5,5.1-5.4,6.6-8.6c1.5-3.2,3.2-7.5,5.1-12.6
			c1.6-4.6,2.9-8.1,4.1-10.5c1.1-2.4,2.6-4.4,4.3-5.9c2.5-2,5.2-3,7.9-3C1174.9,1478.6,1176.9,1479.3,1178.1,1480.6z"/>
		<path class="st3" d="M1216,1531.5c-8,5.4-17.1,9.7-27.4,13c-1,4.4-1.4,8.7-1.4,12.8c0,8.4,3,12.6,9.1,12.6
			c7.6,0,14.3-4.4,20.3-13.2l2.1,1.1c-2.8,4.8-6.6,9-11.4,12.4c-4.8,3.5-9.8,5.2-15.1,5.2c-5.4,0-9.7-1.6-12.8-4.7
			c-3.1-3.2-4.6-7.8-4.6-13.8c0-6.7,1.9-14.2,5.9-22.6s9.2-15.5,15.9-21.4s13.9-8.8,21.7-8.8c2.8,0,5.1,0.8,7,2.2s2.8,3.6,2.8,6.4
			C1228,1519.9,1224,1526.2,1216,1531.5z M1205.9,1511.6c-3.5,3.3-6.7,7.7-9.7,13.1c-3,5.4-5.3,11.2-6.9,17.4
			c8.3-2.9,14.3-5.7,17.9-8.4c3.2-2.6,5.8-5.6,7.6-9.3c1.8-3.6,2.7-7.6,2.7-11.8c0-2.4-0.2-3.9-0.5-4.7s-0.9-1.2-1.6-1.2
			C1212.5,1506.7,1209.4,1508.3,1205.9,1511.6z"/>
		<path class="st3" d="M1299.5,1552.3l-3.3,9.6c-3.2,9-8.5,13.6-15.9,13.6c-3.9,0-6.7-1.3-8.3-3.8c-0.7-1.1-1.1-2.5-1.1-4.3
			c0-2.4,0.8-5.8,2.2-10.3l12.5-37.7c0.9-2.9,1.3-5.1,1.3-6.4c0-3.1-1.4-4.6-4.2-4.6c-3.3,0-7.1,2.4-11.4,7.3
			c-4.3,4.9-8.4,11.6-12.6,20.1c-4.1,8.5-7.7,18-10.7,28.3l-2.4,9.6h-11.5l15.8-56.5c0.6-2.3,0.9-3.9,0.9-4.9c0-2.2-1-3.3-2.9-3.3
			s-3.6,1-5.1,2.9c-1.5,1.9-3.2,5.4-5,10.5l-1.7,4.9h-2.5l3.3-9.6c3.2-9,8.4-13.6,15.7-13.6c2.8,0,4.8,0.7,6,2
			c1.2,1.4,1.8,3.3,1.8,5.7c0,2.4-0.6,5.9-1.8,10.7l-4.6,18c5.6-13.3,11-22.7,16.1-28.2c5.1-5.5,10.8-8.3,16.9-8.3
			c7.1,0,10.7,3.3,10.7,9.9c0,2.9-0.7,6.2-2,10l-12.8,38.4c-0.7,2.1-1.1,3.8-1.1,5c0,2.1,1.1,3.2,3.2,3.2c1.8,0,3.4-1,5.1-3
			c1.6-2,3.3-5.5,5.1-10.5l1.7-4.9L1299.5,1552.3L1299.5,1552.3z"/>
		<path class="st3" d="M1316.4,1572.6c0.8,0.2,2,0.3,3.5,0.3c3.9,0,7.2-1.2,9.6-3.6c2.5-2.4,3.7-5.7,3.7-10c0-2.8-0.5-5.6-1.6-8.2
			c-1.1-2.7-2.8-5.7-5.3-9.2c-3-4-5.2-7.3-6.5-9.9s-2-5.6-2-9.2c0-3.6,0.9-6.8,2.8-9.7c1.8-2.8,4.3-5.1,7.4-6.7
			c3.1-1.6,6.5-2.4,10.2-2.4c4.6,0,8.4,0.9,11.5,2.6c3.1,1.7,4.6,4.7,4.6,8.9c0,1.6-0.5,3.1-1.5,4.6c-1,1.5-2.5,2.2-4.5,2.2
			c-1.5,0-2.8-0.5-3.8-1.6c-1-1.1-1.5-2.4-1.5-3.9c0-2.8,1.2-5.8,3.7-8.8c-1.7-1.1-3.9-1.6-6.6-1.6c-3.3,0-6.1,1.1-8.2,3.4
			s-3.2,5.3-3.2,9.2c0,2.3,0.4,4.2,1.2,5.9c0.8,1.6,2.2,4,4.3,7.2l2.4,3.4c2.6,4,4.6,7.5,5.9,10.4c1.3,2.9,1.9,5.9,1.9,8.9
			c0,3.9-1,7.5-3.1,10.7c-2.1,3.2-4.8,5.6-8.3,7.4c-3.5,1.8-7.2,2.6-11.3,2.6c-5,0-9.2-1.1-12.6-3.2s-5.1-5.4-5.1-9.8
			c0-1.5,0.4-2.8,1.2-4.1s2.1-1.8,3.9-1.8c1.9,0,3.4,0.8,4.3,2.4c1,1.6,1.4,3.6,1.4,5.9c0,1.5-0.3,3.8-0.9,6.8
			C1314.7,1572.1,1315.6,1572.4,1316.4,1572.6z"/>
		<path class="st3" d="M1378.1,1512.3c0-2.2-1-3.3-2.9-3.3c-2,0-3.8,1.1-5.4,3.2c-1.6,2.1-3.2,5.5-5,10.3l-1.8,4.9h-2.5l3.4-9.6
			c1.8-5,4.1-8.5,7.1-10.5c2.9-2,6-3,9.3-3c5.8,0,8.7,2.8,8.7,8.3c0,2.9-0.7,6.3-2.1,10.1l-14.1,39.9c-0.7,2.1-1.1,3.7-1.1,4.9
			c0,2.2,1.1,3.3,3.2,3.3c1.8,0,3.6-1,5.1-3s3.3-5.5,5.1-10.4l1.8-4.9h2.5l-3.4,9.6c-1.8,4.8-4.1,8.3-6.9,10.4
			c-2.8,2.1-5.9,3.2-9.3,3.2c-6.2,0-9.2-2.7-9.2-8c0-2.5,0.8-6,2.4-10.4l14.1-39.9C1377.8,1515.1,1378.1,1513.4,1378.1,1512.3z
			 M1384,1476.7c2-2.1,4.2-3.1,6.8-3.1c2,0,3.6,0.7,4.9,2s1.8,2.9,1.8,4.9c0,2.6-1,5-3,7s-4.3,3-6.8,3c-1.9,0-3.5-0.6-4.7-1.9
			s-1.8-2.9-1.8-4.8C1381,1481.1,1382,1478.8,1384,1476.7z"/>
		<path class="st3" d="M1465.8,1552.3l-3.3,9.6c-3.2,9-8.5,13.6-15.9,13.6c-3.9,0-6.7-1.3-8.3-3.8c-0.7-1.1-1.1-2.5-1.1-4.3
			c0-2.4,0.8-5.8,2.2-10.3l12.5-37.7c0.9-2.9,1.3-5.1,1.3-6.4c0-3.1-1.4-4.6-4.2-4.6c-3.3,0-7.1,2.4-11.4,7.3
			c-4.3,4.9-8.4,11.6-12.6,20.1c-4.1,8.5-7.7,18-10.7,28.3l-2.4,9.6h-11.5l15.8-56.5c0.6-2.3,0.9-3.9,0.9-4.9c0-2.2-1-3.3-2.9-3.3
			s-3.6,1-5.1,2.9c-1.5,1.9-3.2,5.4-5,10.5l-1.7,4.9h-2.5l3.3-9.6c3.2-9,8.4-13.6,15.7-13.6c2.8,0,4.8,0.7,6,2
			c1.2,1.4,1.8,3.3,1.8,5.7c0,2.4-0.6,5.9-1.8,10.7l-4.6,18c5.6-13.3,11-22.7,16.1-28.2c5.1-5.5,10.8-8.3,16.9-8.3
			c7.1,0,10.7,3.3,10.7,9.9c0,2.9-0.7,6.2-2,10l-12.8,38.4c-0.7,2.1-1.1,3.8-1.1,5c0,2.1,1.1,3.2,3.2,3.2c1.8,0,3.4-1,5.1-3
			c1.6-2,3.3-5.5,5.1-10.5l1.7-4.9L1465.8,1552.3L1465.8,1552.3z"/>
		<path class="st3" d="M1536.3,1500.7c1.4,1.3,2,3.3,2,5.9c0,2.3-0.6,4-1.7,5.3s-2.5,1.8-4.1,1.8c-1.7,0-3.1-0.6-4.4-1.7
			s-1.9-2.8-1.9-5c0-1.6,0.4-3.4,1.2-5.5c-3.4,1.5-5.9,3.3-7.5,5.5c3.7,2.6,5.5,6.5,5.5,11.8c0,3.9-0.9,7.6-2.8,11.3s-4.6,6.9-8,9.6
			c-3.5,2.7-7.5,4.5-12.1,5.3l-4.3,2.4c-4.1,2.2-7.1,3.9-9,5.3c-1.9,1.3-2.8,2.6-2.8,3.8c0,1,0.6,1.8,1.8,2.5s3.2,1.4,6.1,2.1
			l9.6,2.5c5,1.3,8.7,2.8,11.2,4.3s3.7,3.9,3.7,7.1c0,3.3-1.4,6.9-4.2,10.7c-2.8,3.8-7,7-12.8,9.6s-12.8,3.9-21.3,3.9
			c-6.8,0-11.9-0.9-15.5-2.6c-3.6-1.8-5.3-4.2-5.3-7.2c0-3,1.6-6,4.9-9c3.2-3,7.9-5.4,13.8-7.2l0.9,2c-5.7,3-8.6,7-8.6,12
			c0,3.3,1.2,5.8,3.5,7.4c2.3,1.6,5.4,2.4,9.3,2.4s7.9-0.8,12-2.4c4.1-1.6,7.5-3.7,10.2-6.2c2.7-2.6,4-5.3,4-8.1
			c0-1.2-0.3-2.1-1.1-2.5c-0.7-0.4-2.2-0.9-4.3-1.4l-20.2-5.1c-4.7-1.2-7.1-3.9-7.1-7.9c0-2.7,1.4-5.4,4.3-8.1
			c2.8-2.7,8.2-5.9,16.1-9.7h-0.9c-5.1,0-9.2-1.2-12.4-3.6s-4.7-6-4.7-10.7c0-3.7,1-7.6,2.9-11.8c1.9-4.2,5.1-7.8,9.3-10.8
			c4.3-3,9.8-4.5,16.3-4.5c3.8,0,6.9,0.6,9.5,1.7c1.7-2.1,3.7-3.8,6.1-5.1c2.4-1.3,4.7-2,7.1-2
			C1533.1,1498.8,1535,1499.4,1536.3,1500.7z M1507.6,1538.6c2.4-3.1,4-6.7,4.9-10.9s1.3-7.9,1.3-11.5c0-3.2-0.4-5.7-1.3-7.3
			c-0.9-1.6-2.5-2.4-4.9-2.4c-4.2,0-7.6,1.9-10.1,5.6s-4.2,7.8-5.1,12.3c-0.9,4.5-1.4,8.1-1.4,10.9c0,5.3,2.3,7.9,7,7.9
			C1502,1543.3,1505.2,1541.7,1507.6,1538.6z"/>
		<path class="st3" d="M1547.5,1562.5c-0.3,1.1-0.4,2-0.4,2.9c0,1.8,0.5,3.1,1.6,3.9c1.1,0.9,2.4,1.3,4.1,1.3c2.2,0,4.2-0.9,6.1-2.8
			s3.8-5.3,5.6-10.3l1.8-5.1h2.5l-2.8,8.3c-1.8,5.4-4.2,9.3-7.2,11.5c-2.9,2.2-6.6,3.4-10.9,3.4c-3.9,0-6.9-1-8.8-2.9
			c-1.9-1.9-2.9-4.6-2.9-8c0-2.3,0.4-4.8,1.2-7.5l14-48.5h-11.8l0.7-2.6h11.8l5.8-20c4.7-0.2,8.7-0.8,11.8-1.8l-6.2,21.9h17.4
			l-0.4,2.6h-17.8L1547.5,1562.5z"/>
		<path class="st3" d="M1583.1,1532.5c3.1-7.9,7.5-14.7,13.3-20.2s12.5-8.2,20.2-8.2c5.6,0,10,1.7,13.2,5.2
			c3.2,3.5,4.8,8.6,4.8,15.5c0,6.9-1.5,14.4-4.6,22.3c-3.1,7.9-7.5,14.7-13.3,20.2s-12.5,8.2-20.2,8.2c-5.6,0-10-1.7-13.2-5.2
			c-3.2-3.5-4.8-8.6-4.8-15.5C1578.5,1547.9,1580.1,1540.5,1583.1,1532.5z M1603.1,1515.3c-4,5.7-7.2,12.8-9.6,21.4
			c-2.4,8.6-3.6,16.8-3.6,24.7c0,3.9,0.6,6.8,1.8,8.7s3.1,2.8,5.7,2.8c4.5,0,8.7-2.8,12.7-8.6c4-5.7,7.2-12.8,9.6-21.4
			s3.6-16.8,3.6-24.7c0-3.9-0.6-6.8-1.8-8.7c-1.2-1.8-3.1-2.8-5.7-2.8C1611.3,1506.8,1607.1,1509.6,1603.1,1515.3z"/>
		<path class="st3" d="M1709.8,1552.3l-3.3,9.6c-3.2,9-8.5,13.6-15.9,13.6c-3.9,0-6.7-1.3-8.3-3.8c-0.7-1.1-1.1-2.5-1.1-4.3
			c0-2.4,0.8-5.8,2.2-10.3l12.5-37.7c0.9-2.9,1.3-5.1,1.3-6.4c0-3.1-1.4-4.6-4.2-4.6c-3.3,0-7.1,2.4-11.4,7.3
			c-4.3,4.9-8.4,11.6-12.6,20.1c-4.1,8.5-7.7,18-10.7,28.3l-2.4,9.6h-11.5l15.8-56.5c0.6-2.3,0.9-3.9,0.9-4.9c0-2.2-1-3.3-2.9-3.3
			s-3.6,1-5.1,2.9c-1.5,1.9-3.2,5.4-5,10.5l-1.7,4.9h-2.5l3.3-9.6c3.2-9,8.4-13.6,15.7-13.6c2.8,0,4.8,0.7,6,2
			c1.2,1.4,1.8,3.3,1.8,5.7c0,2.4-0.6,5.9-1.8,10.7l-4.6,18c5.6-13.3,11-22.7,16.1-28.2c5.1-5.5,10.8-8.3,16.9-8.3
			c7.1,0,10.7,3.3,10.7,9.9c0,2.9-0.7,6.2-2,10l-12.8,38.4c-0.7,2.1-1.1,3.8-1.1,5c0,2.1,1.1,3.2,3.2,3.2c1.8,0,3.4-1,5.1-3
			c1.6-2,3.3-5.5,5.1-10.5l1.7-4.9L1709.8,1552.3L1709.8,1552.3z"/>
	</g>
</g>
</svg>
