<?xml version="1.0" encoding="utf-8"?>
<!-- Generator: Adobe Illustrator 26.0.1, SVG Export Plug-In . SVG Version: 6.00 Build 0)  -->
<svg version="1.1" id="Layer_1" xmlns="http://www.w3.org/2000/svg" xmlns:xlink="http://www.w3.org/1999/xlink" x="0px" y="0px"
	 viewBox="0 0 751.4 607.6" style="enable-background:new 0 0 751.4 607.6;" xml:space="preserve">
<style type="text/css">
	.st0{fill:#3C3B3A;}
	.st1{fill:#F9FAF8;}
	.st2{fill:#F0B3C1;}
</style>
<g id="Group_4" transform="translate(-200.045 -130.787)">
	<g id="Group_1" transform="translate(200.045 155.073)">
		<path id="Path_5" class="st0" d="M430.4,149.6V27.9h39.4c14.9,0,24.7,0.6,29.2,1.8c7,1.9,13.2,6.1,17.5,11.9
			c4.7,6.1,7.1,14,7.1,23.7c0,7.5-1.4,13.8-4.1,18.8c-2.4,4.8-6,8.9-10.3,12c-3.8,2.7-8.2,4.7-12.7,5.8c-5.9,1.2-14.4,1.7-25.5,1.7
			h-16v45.9L430.4,149.6z M454.9,48.5V83h13.4c9.7,0,16.2-0.6,19.4-1.9c3.1-1.2,5.8-3.2,7.7-6c1.9-2.8,2.9-6.1,2.8-9.5
			c0.1-4-1.2-7.9-3.9-11c-2.6-2.9-6.1-4.8-9.9-5.4c-2.9-0.6-8.8-0.8-17.7-0.8L454.9,48.5z"/>
		<path id="Path_6" class="st0" d="M543,149.6V27.9h24.6v121.7H543z"/>
		<path id="Path_7" class="st0" d="M591,149.6V27.9h90.2v20.6h-65.7v27h61.1V96h-61.1v33.1h68v20.5L591,149.6z"/>
		<path id="Path_8" class="st0" d="M20.9,302.3l32.4-3.2c2,10.9,5.9,18.9,11.9,24s14,7.7,24.2,7.7c10.7,0,18.8-2.3,24.3-6.8
			c5.4-4.5,8.2-9.9,8.2-15.9c0.1-3.6-1.1-7.2-3.4-10c-2.3-2.7-6.3-5.1-12-7.2c-3.9-1.4-12.8-3.8-26.7-7.2
			c-17.9-4.4-30.4-9.9-37.6-16.3c-10.1-9.1-15.2-20.2-15.2-33.2c0-8.4,2.5-16.6,7.2-23.6c4.8-7.3,11.6-12.9,20.6-16.7
			s19.8-5.7,32.5-5.7c20.7,0,36.3,4.5,46.8,13.6s16,21.2,16.5,36.4l-33.3,1.5c-1.4-8.5-4.5-14.6-9.2-18.3
			c-4.7-3.7-11.7-5.6-21.1-5.6c-9.7,0-17.3,2-22.8,6c-3.4,2.3-5.4,6.2-5.3,10.3c0,3.9,1.8,7.6,5,10c4.2,3.5,14.4,7.2,30.6,11
			s28.2,7.8,36,11.9c7.5,3.8,13.8,9.6,18.2,16.8c4.4,7.1,6.6,15.9,6.6,26.3c0,9.4-2.7,18.7-7.9,26.6c-5.3,8.3-13.1,14.8-22.3,18.4
			c-9.6,4-21.6,6-35.9,6c-20.9,0-36.9-4.8-48.1-14.5C29.8,334.8,23.1,320.8,20.9,302.3z"/>
		<path id="Path_9" class="st0" d="M184.2,356V192.2h33.3v136h82.9V356H184.2z"/>
		<path id="Path_10" class="st0" d="M323.2,356V190.9h33.3V356H323.2z"/>
		<path id="Path_11" class="st0" d="M493.9,295.3l32.3,10.3c-5,18-13.2,31.4-24.7,40.2c-11.5,8.8-26.2,13.1-43.9,13.1
			c-21.9,0-40-7.5-54.1-22.5c-14.1-15-21.2-35.5-21.2-61.5c0-27.5,7.1-48.8,21.3-64c14.2-15.2,32.9-22.8,56-22.8
			c20.2,0,36.6,6,49.2,17.9c7.5,7.1,13.1,17.2,16.9,30.4l-33,7.9c-2-8.6-6-15.3-12.2-20.3c-6.2-5-13.7-7.4-22.6-7.4
			c-12.2,0-22.2,4.4-29.8,13.2c-7.6,8.8-11.4,23-11.4,42.7c0,20.9,3.8,35.7,11.3,44.6s17.3,13.3,29.3,13.3
			c8.4,0.2,16.6-2.9,22.9-8.4C486.6,316.3,491.2,307.4,493.9,295.3z"/>
		<path id="Path_12" class="st0" d="M554.9,356V190.9h122.5v27.9h-89.1v36.6h82.9v27.8h-82.9v44.9h92.3V356L554.9,356z"/>
		<path id="Path_13" class="st0" d="M245.3,511.2l-14.1,18c-7.3-3.6-14-8.3-19.9-13.9c-4.6,4.2-9.9,7.5-15.7,9.8
			c-6.3,2.2-13,3.3-19.8,3.2c-15.2,0-26.6-4.3-34.2-12.8c-5.8-6.2-8.9-14.3-8.9-22.7c-0.1-7.6,2.4-15,7-21
			c4.6-6.2,11.6-11.6,20.8-16.2c-3.7-4.3-6.9-9-9.4-14.1c-2-3.9-3.1-8.3-3.2-12.7c0-7.4,2.9-13.6,8.8-18.7
			c5.9-5.1,14.3-7.7,25.2-7.7c10.5,0,18.7,2.7,24.7,8.1c5.7,4.9,9,12.1,8.9,19.7c0,5-1.6,9.9-4.4,14c-2.9,4.4-8.9,9.4-17.8,15
			l16.9,22.3c2.3-4.4,4-9,5.1-13.9l21.1,4.8c-1.5,5.6-3.3,11.1-5.5,16.4c-1.3,3.1-3,6-5,8.7c3.2,2.9,6.5,5.6,10.1,8
			C239.1,507.5,242.1,509.5,245.3,511.2z M172.6,470.3c-5.4,2.7-9.4,6-12,9.8c-2.5,3.4-3.9,7.5-4,11.7c-0.2,4.6,1.6,9.1,4.9,12.3
			c3.3,3.2,7.7,4.8,13.2,4.8c3.6,0,7.2-0.7,10.5-2.2c4-1.8,7.7-4.2,11-7.1L172.6,470.3z M181.8,445l6.3-4.8c4.6-3.6,7-7.2,7-10.7
			c0-2.9-1.2-5.7-3.4-7.6c-2.2-2.1-5.3-3.2-9.1-3.2c-3.7,0-6.6,0.9-8.7,2.8c-2,1.6-3.1,3.9-3.2,6.4c0,2.9,1.8,6.4,5.3,10.5
			L181.8,445z"/>
		<path id="Path_14" class="st0" d="M307.5,404.3h44.9c10.1,0,17.8,0.8,23.2,2.3c7,2,13.3,5.9,18.3,11.2c5.3,5.6,9.2,12.4,11.6,19.7
			c2.7,7.8,4,17.4,4,28.8c0,10-1.2,18.6-3.7,25.9c-3,8.9-7.4,16-13,21.5c-4.3,4.1-10,7.4-17.3,9.7c-5.4,1.7-12.7,2.6-21.7,2.6h-46.2
			V404.3z M332.1,424.9v80.6h18.3c6.9,0,11.8-0.4,14.9-1.2c3.7-0.8,7.1-2.6,9.9-5.1c2.6-2.4,4.8-6.3,6.4-11.7
			c1.7-5.5,2.5-12.9,2.5-22.3c0-9.4-0.8-16.6-2.5-21.7c-1.3-4.4-3.7-8.5-7-11.8c-3.2-2.9-7.1-4.9-11.4-5.7
			c-3.4-0.8-10.2-1.2-20.2-1.2L332.1,424.9z"/>
		<path id="Path_15" class="st0" d="M429.6,526V404.3h24.6V526H429.6z"/>
		<path id="Path_16" class="st0" d="M508.6,526l-43.5-121.7h26.6l30.8,90.1l29.8-90.1h26.1L534.9,526H508.6z"/>
		<path id="Path_17" class="st0" d="M591,526V404.3h90.2v20.6h-65.7v27h61.1v20.5h-61.1v33.1h68V526L591,526z"/>
	</g>
	<g id="Group_2" transform="translate(212.189 142.929)">
		<path id="Path_18" class="st1" d="M430.4,149.6V27.9h39.4c14.9,0,24.7,0.6,29.2,1.8c7,1.9,13.2,6.1,17.5,11.9
			c4.7,6.1,7.1,14,7.1,23.7c0,7.5-1.4,13.8-4.1,18.8c-2.4,4.8-6,8.9-10.3,12c-3.8,2.7-8.2,4.7-12.7,5.8c-5.9,1.2-14.4,1.7-25.5,1.7
			h-16v45.9L430.4,149.6z M454.9,48.5V83h13.4c9.7,0,16.2-0.6,19.4-1.9c3.1-1.2,5.8-3.2,7.7-6c1.9-2.8,2.8-6.1,2.8-9.5
			c0.1-4-1.2-7.9-3.9-11c-2.6-2.9-6.1-4.8-9.9-5.4c-2.9-0.6-8.8-0.8-17.7-0.8L454.9,48.5z"/>
		<path id="Path_19" class="st1" d="M543,149.6V27.9h24.6v121.7H543z"/>
		<path id="Path_20" class="st1" d="M591,149.6V27.9h90.2v20.6h-65.7v27h61.1V96h-61.1v33.1h68v20.5L591,149.6z"/>
		<path id="Path_21" class="st1" d="M20.9,302.3l32.4-3.2c2,10.9,5.9,18.9,11.9,24s14,7.7,24.2,7.7c10.7,0,18.8-2.3,24.3-6.8
			c5.4-4.5,8.2-9.9,8.2-15.9c0.1-3.6-1.1-7.2-3.4-10c-2.3-2.7-6.3-5.1-12-7.2c-3.9-1.4-12.8-3.8-26.7-7.2
			c-17.9-4.4-30.4-9.9-37.6-16.3c-10.1-9.1-15.2-20.2-15.2-33.2c0-8.4,2.5-16.6,7.2-23.6c4.8-7.3,11.6-12.9,20.6-16.7
			c9-3.8,19.8-5.7,32.5-5.7c20.7,0,36.3,4.5,46.8,13.6c10.5,9.1,16,21.2,16.5,36.4l-33.3,1.5c-1.4-8.5-4.5-14.6-9.2-18.3
			c-4.7-3.7-11.7-5.6-21.1-5.6c-9.7,0-17.3,2-22.8,6c-3.4,2.3-5.4,6.2-5.3,10.3c0,3.9,1.8,7.6,5,10c4.2,3.5,14.4,7.2,30.6,11
			c16.2,3.8,28.2,7.8,36,11.9c7.5,3.8,13.8,9.6,18.2,16.8c4.4,7.1,6.6,15.9,6.6,26.3c0,9.4-2.7,18.7-7.9,26.6
			c-5.3,8.3-13.1,14.8-22.3,18.4c-9.6,4-21.6,6-35.9,6c-20.9,0-36.9-4.8-48.1-14.5C29.8,334.8,23.1,320.8,20.9,302.3z"/>
		<path id="Path_22" class="st1" d="M184.2,356V192.2h33.3v136h82.9V356H184.2z"/>
		<path id="Path_23" class="st1" d="M323.2,356V190.9h33.3V356H323.2z"/>
		<path id="Path_24" class="st1" d="M493.9,295.3l32.3,10.3c-5,18-13.2,31.4-24.7,40.2c-11.5,8.7-26.2,13.1-43.9,13.1
			c-21.9,0-40-7.5-54.1-22.5c-14.1-15-21.2-35.5-21.2-61.5c0-27.5,7.1-48.8,21.3-64c14.2-15.2,32.9-22.8,56-22.8
			c20.2,0,36.6,6,49.2,17.9c7.5,7.1,13.1,17.2,16.9,30.4l-33,7.9c-2-8.6-6-15.3-12.2-20.3c-6.2-5-13.7-7.4-22.6-7.4
			c-12.2,0-22.2,4.4-29.8,13.2s-11.4,23-11.4,42.7c0,20.9,3.8,35.7,11.3,44.6s17.3,13.3,29.3,13.3c8.4,0.2,16.6-2.9,22.9-8.4
			C486.6,316.3,491.2,307.4,493.9,295.3z"/>
		<path id="Path_25" class="st1" d="M554.9,356V190.9h122.4v27.9h-89.1v36.6h82.9v27.8h-82.9v44.9h92.3V356L554.9,356z"/>
		<path id="Path_26" class="st1" d="M245.3,511.2l-14.1,18c-7.3-3.6-14-8.3-19.9-13.9c-4.6,4.2-9.9,7.5-15.7,9.8
			c-6.3,2.2-13,3.3-19.8,3.2c-15.2,0-26.6-4.3-34.2-12.8c-5.8-6.2-8.9-14.3-8.9-22.7c-0.1-7.6,2.4-15,7-21
			c4.6-6.2,11.6-11.6,20.8-16.2c-3.7-4.3-6.9-9-9.4-14.1c-2-3.9-3.1-8.3-3.2-12.7c0-7.4,2.9-13.6,8.8-18.7
			c5.9-5.1,14.3-7.7,25.2-7.7c10.5,0,18.7,2.7,24.7,8.1c5.7,4.9,9,12.1,8.9,19.7c0,5-1.6,9.9-4.4,14c-2.9,4.4-8.9,9.4-17.8,15
			l16.9,22.3c2.3-4.4,4-9,5.1-13.9l21.1,4.8c-1.5,5.6-3.3,11.1-5.5,16.4c-1.3,3.1-3,6-5,8.7c3.2,2.9,6.5,5.6,10.1,8
			C239.1,507.5,242.1,509.5,245.3,511.2z M172.6,470.3c-5.4,2.7-9.4,6-12,9.8c-2.5,3.4-3.9,7.5-4,11.7c-0.2,4.6,1.6,9.1,4.9,12.3
			c3.3,3.2,7.7,4.8,13.2,4.8c3.6,0,7.2-0.7,10.5-2.2c4-1.8,7.7-4.2,11-7.1L172.6,470.3z M181.8,445l6.3-4.8c4.6-3.6,7-7.2,7-10.7
			c0-2.9-1.2-5.7-3.4-7.6c-2.2-2.1-5.3-3.2-9.1-3.2c-3.7,0-6.6,0.9-8.7,2.8c-2,1.6-3.1,3.9-3.2,6.4c0,2.9,1.8,6.4,5.3,10.5
			L181.8,445z"/>
		<path id="Path_27" class="st1" d="M307.5,404.3h44.9c10.1,0,17.8,0.8,23.2,2.3c7,2,13.3,5.9,18.3,11.2c5.3,5.6,9.2,12.4,11.6,19.7
			c2.7,7.8,4,17.4,4,28.8c0,10-1.2,18.6-3.7,25.9c-3,8.9-7.4,16-13,21.5c-4.3,4.1-10,7.4-17.3,9.7c-5.4,1.7-12.7,2.6-21.7,2.6h-46.2
			V404.3z M332.1,424.9v80.6h18.3c6.9,0,11.8-0.4,14.9-1.2c3.7-0.8,7.1-2.6,9.9-5.1c2.6-2.4,4.8-6.3,6.4-11.7
			c1.7-5.5,2.5-12.9,2.5-22.3c0-9.4-0.8-16.6-2.5-21.7c-1.3-4.4-3.7-8.5-7-11.8c-3.2-2.9-7.1-4.9-11.4-5.7
			c-3.4-0.8-10.2-1.2-20.2-1.2L332.1,424.9z"/>
		<path id="Path_28" class="st1" d="M429.6,526V404.3h24.6V526H429.6z"/>
		<path id="Path_29" class="st1" d="M508.6,526l-43.5-121.7h26.6l30.8,90.1l29.8-90.1h26.1L534.9,526H508.6z"/>
		<path id="Path_30" class="st1" d="M591,526V404.3h90.2v20.6h-65.7v27h61.1v20.5h-61.1v33.1h68V526L591,526z"/>
	</g>
	<g id="Group_3" transform="translate(224.331 130.787)">
		<path id="Path_31" class="st2" d="M430.4,149.6V27.9h39.4c14.9,0,24.7,0.6,29.2,1.8c7,1.9,13.2,6.1,17.5,11.9
			c4.7,6.1,7.1,14,7.1,23.7c0,7.5-1.4,13.8-4.1,18.8c-2.4,4.8-6,8.9-10.3,12c-3.8,2.7-8.2,4.7-12.7,5.8c-5.9,1.2-14.4,1.7-25.5,1.7
			h-16v45.9L430.4,149.6z M454.9,48.5V83h13.4c9.7,0,16.2-0.6,19.4-1.9c3.1-1.2,5.8-3.2,7.7-6c1.9-2.8,2.8-6.1,2.8-9.5
			c0.1-4-1.2-7.9-3.9-11c-2.6-2.9-6.1-4.8-9.9-5.4c-2.9-0.6-8.8-0.8-17.7-0.8L454.9,48.5z"/>
		<path id="Path_32" class="st2" d="M543,149.6V27.9h24.6v121.7H543z"/>
		<path id="Path_33" class="st2" d="M591,149.6V27.9h90.2v20.6h-65.7v27h61.1V96h-61.1v33.1h68v20.5L591,149.6z"/>
		<path id="Path_34" class="st2" d="M20.9,302.3l32.4-3.2c2,10.9,5.9,18.9,11.9,24s14,7.7,24.2,7.7c10.7,0,18.8-2.3,24.3-6.8
			s8.2-9.9,8.2-15.9c0.1-3.6-1.1-7.2-3.4-10c-2.3-2.7-6.3-5.1-12-7.2c-3.9-1.4-12.8-3.8-26.7-7.2c-17.9-4.4-30.4-9.9-37.6-16.3
			c-10.1-9.1-15.2-20.2-15.2-33.2c0-8.4,2.5-16.6,7.2-23.6c4.8-7.3,11.6-12.9,20.6-16.7s19.8-5.7,32.5-5.7
			c20.7,0,36.3,4.5,46.8,13.6s16,21.2,16.5,36.4l-33.3,1.5c-1.4-8.5-4.5-14.6-9.2-18.3c-4.7-3.7-11.7-5.6-21.1-5.6
			c-9.7,0-17.3,2-22.8,6c-3.4,2.3-5.4,6.2-5.3,10.3c0,3.9,1.8,7.6,5,10c4.2,3.5,14.4,7.2,30.6,11c16.2,3.8,28.2,7.8,36,11.9
			c7.5,3.8,13.8,9.6,18.2,16.8c4.4,7.1,6.6,15.9,6.6,26.3c0,9.4-2.7,18.7-7.9,26.6c-5.3,8.3-13.1,14.8-22.3,18.4
			c-9.6,4-21.6,6-35.9,6c-20.9,0-36.9-4.8-48.1-14.5C29.8,334.8,23.1,320.8,20.9,302.3z"/>
		<path id="Path_35" class="st2" d="M184.2,356V192.2h33.3v136h82.9V356H184.2z"/>
		<path id="Path_36" class="st2" d="M323.2,356V190.9h33.3V356H323.2z"/>
		<path id="Path_37" class="st2" d="M493.9,295.3l32.3,10.3c-5,18-13.2,31.4-24.7,40.2c-11.5,8.7-26.2,13.1-43.9,13.1
			c-21.9,0-40-7.5-54.1-22.5s-21.2-35.5-21.2-61.5c0-27.5,7.1-48.8,21.3-64c14.2-15.2,32.9-22.8,56-22.8c20.2,0,36.6,6,49.2,17.9
			c7.5,7.1,13.1,17.2,16.9,30.4l-33,7.9c-2-8.6-6-15.3-12.2-20.3c-6.2-5-13.7-7.4-22.6-7.4c-12.2,0-22.2,4.4-29.8,13.2
			c-7.6,8.8-11.4,23-11.4,42.7c0,20.9,3.8,35.7,11.3,44.6c7.5,8.9,17.3,13.3,29.3,13.3c8.4,0.2,16.6-2.9,22.9-8.4
			C486.6,316.3,491.2,307.4,493.9,295.3z"/>
		<path id="Path_38" class="st2" d="M554.9,356V190.9h122.5v27.9h-89.1v36.6h82.9v27.8h-82.9v44.9h92.3V356L554.9,356z"/>
		<path id="Path_39" class="st2" d="M245.3,511.2l-14.1,18c-7.3-3.6-14-8.3-19.9-13.9c-4.6,4.2-9.9,7.5-15.7,9.8
			c-6.3,2.2-13,3.3-19.8,3.2c-15.2,0-26.6-4.3-34.2-12.8c-5.8-6.2-8.9-14.3-8.9-22.7c-0.1-7.6,2.4-15,7-21
			c4.6-6.2,11.6-11.6,20.8-16.2c-3.7-4.3-6.9-9-9.4-14.1c-2-3.9-3.1-8.3-3.2-12.7c0-7.4,2.9-13.6,8.8-18.7
			c5.9-5.1,14.3-7.7,25.2-7.7c10.5,0,18.7,2.7,24.7,8.1c5.7,4.9,9,12.1,8.9,19.7c0,5-1.6,9.9-4.4,14c-2.9,4.4-8.9,9.4-17.8,15
			l16.9,22.3c2.3-4.4,4-9,5.1-13.9l21.1,4.8c-1.5,5.6-3.3,11.1-5.5,16.4c-1.3,3.1-3,6-5,8.7c3.2,2.9,6.5,5.6,10.1,8
			C239.1,507.5,242.1,509.5,245.3,511.2z M172.6,470.3c-5.4,2.7-9.4,6-12,9.8c-2.5,3.4-3.9,7.5-4,11.7c-0.2,4.6,1.6,9.1,4.9,12.3
			c3.3,3.2,7.7,4.8,13.2,4.8c3.6,0,7.2-0.7,10.5-2.2c4-1.8,7.7-4.2,11-7.1L172.6,470.3z M181.8,445l6.3-4.8c4.6-3.6,7-7.2,7-10.7
			c0-2.9-1.2-5.7-3.4-7.6c-2.2-2.1-5.3-3.2-9.1-3.2c-3.7,0-6.6,0.9-8.7,2.8c-2,1.6-3.1,3.9-3.2,6.4c0,2.9,1.8,6.4,5.3,10.5
			L181.8,445z"/>
		<path id="Path_40" class="st2" d="M307.5,404.3h44.9c10.1,0,17.8,0.8,23.2,2.3c7,2,13.3,5.9,18.3,11.2c5.3,5.7,9.2,12.4,11.6,19.7
			c2.7,7.8,4,17.4,4,28.8c0,10-1.2,18.6-3.7,25.9c-3,8.9-7.4,16-13,21.5c-4.3,4.2-10,7.4-17.3,9.7c-5.4,1.7-12.7,2.6-21.7,2.6h-46.2
			V404.3z M332.1,424.9v80.6h18.3c6.9,0,11.8-0.4,14.9-1.2c3.7-0.8,7.1-2.6,9.9-5.1c2.6-2.4,4.8-6.3,6.4-11.7
			c1.7-5.5,2.5-12.9,2.5-22.3c0-9.4-0.8-16.6-2.5-21.7c-1.3-4.4-3.7-8.5-7-11.8c-3.2-2.9-7.1-4.9-11.4-5.7
			c-3.4-0.8-10.2-1.2-20.2-1.2L332.1,424.9z"/>
		<path id="Path_41" class="st2" d="M429.6,526V404.3h24.6V526H429.6z"/>
		<path id="Path_42" class="st2" d="M508.6,526l-43.5-121.7h26.6l30.8,90.1l29.8-90.1h26.1L534.9,526H508.6z"/>
		<path id="Path_43" class="st2" d="M591,526V404.3h90.2v20.6h-65.7v27h61.1v20.5h-61.1v33.1h68V526L591,526z"/>
	</g>
</g>
</svg>
