<?xml version="1.0" encoding="utf-8"?>
<!-- Generator: Adobe Illustrator 26.0.1, SVG Export Plug-In . SVG Version: 6.00 Build 0)  -->
<svg version="1.1" id="Layer_1" xmlns="http://www.w3.org/2000/svg" xmlns:xlink="http://www.w3.org/1999/xlink" x="0px" y="0px"
	 viewBox="0 0 800 800" style="enable-background:new 0 0 800 800;" xml:space="preserve">
<style type="text/css">
	.st0{fill:#4C8780;}
	.st1{fill:#11284D;}
	.st2{fill:#EEECE2;}
</style>
<rect x="1" class="st0" width="798" height="800"/>
<g>
	<path class="st1" d="M286.3,280.1c-1.4-0.7-2.9-1.3-4.5-1.6c-1.6-0.3-3.3-0.5-4.9-0.5c-1.7-0.1-3.3-0.2-4.8-0.3
		c-1.5-0.2-2.9-0.5-4.1-0.9c-1.2-0.4-2.2-1.2-2.8-2.3c-0.5-0.8-0.8-1.7-0.9-2.8l10.7,0l2.7-7.6c-1-0.1-1.9-0.2-2.9-0.2
		c-0.9,0-1.9,0-2.8,0.1c-0.9,0.1-1.9,0.4-2.8,0.7c-0.9,0.3-1.9,0.8-2.8,1.3c-1.4,0.8-2.5,1.8-3.4,2.9c-0.9,1.1-1.5,2.3-1.9,3.6
		c-0.4,1.3-0.5,2.6-0.3,3.9c0.2,1.4,0.7,2.7,1.4,3.9c0.8,1.4,1.9,2.4,3.2,3.1c1.3,0.7,2.7,1.2,4.2,1.5c1.5,0.3,3.1,0.5,4.6,0.6
		c1.6,0.1,3.1,0.3,4.6,0.5c1.4,0.2,2.8,0.6,3.9,1.1c1.2,0.5,2.1,1.3,2.7,2.3c0.3,0.6,0.6,1.2,0.8,1.9c0.2,0.7,0.2,1.6,0.2,2.6
		l-11.3-0.3l-2.7,7.5c2.2,0.2,4.4,0,6.6-0.6c2.2-0.6,4.2-1.4,6.1-2.6c1.3-0.8,2.4-1.7,3.3-2.9c0.9-1.1,1.6-2.4,2-3.7
		c0.4-1.3,0.6-2.6,0.5-4c-0.1-1.4-0.6-2.7-1.4-4C288.8,281.9,287.7,280.8,286.3,280.1"/>
	<polygon class="st1" points="317,252.8 314.3,245.9 288.5,256.2 291.2,263 299,254.8 309.4,281.1 307.5,286.9 321.4,281.4 
		316.1,278.5 305.7,252.2 	"/>
	<path class="st1" d="M367.7,233.3l-14.8,2.4l4.6,4l4.7,29l-9.4-5l-5.1,5.7c1,0.5,1.9,1,2.8,1.3c0.9,0.4,1.8,0.6,2.7,0.8
		c0.9,0.2,1.8,0.3,2.8,0.3c0.9,0,2-0.1,3.1-0.2c1.5-0.2,2.9-0.7,4.1-1.5c1.2-0.7,2.2-1.6,3-2.7c0.8-1.1,1.3-2.2,1.7-3.5
		c0.3-1.3,0.4-2.6,0.2-4l-3.5-21.5L367.7,233.3z"/>
	<path class="st1" d="M407.4,253.1c0.1,3.1-0.6,6.3-1.9,9.5c-2.9,0.1-5.5-0.4-7.7-1.2c-2.3-0.9-4.2-2.1-5.8-3.7
		c-1.6-1.6-2.9-3.4-3.7-5.5c-0.9-2.1-1.3-4.4-1.4-6.9c0-1.5,0.1-3.1,0.4-4.7c0.3-1.6,0.8-3.2,1.5-4.8c2.9,0,5.5,0.4,7.7,1.2
		c2.3,0.9,4.2,2.1,5.8,3.6c1.6,1.5,2.9,3.4,3.7,5.5C406.9,248.4,407.4,250.7,407.4,253.1 M413.6,248.8c0-2.7-0.5-5.1-1.4-7.3
		c-0.9-2.2-2.1-4.1-3.6-5.7c-1.5-1.6-3.3-2.8-5.3-3.7c-2-0.9-4.2-1.3-6.4-1.2c-2.3,0-4.4,0.6-6.4,1.6c-2,1-3.7,2.4-5.2,4.1
		c-1.5,1.7-2.6,3.7-3.4,6c-0.8,2.3-1.2,4.8-1.2,7.5c0,2.7,0.5,5.1,1.4,7.3c0.9,2.2,2.1,4,3.6,5.6c1.5,1.5,3.3,2.7,5.3,3.6
		c2,0.8,4.2,1.2,6.5,1.2c2.3,0,4.4-0.5,6.4-1.5c2-1,3.7-2.3,5.2-3.9c1.5-1.7,2.6-3.6,3.4-5.9C413.2,253.9,413.6,251.5,413.6,248.8"
		/>
	<polygon class="st1" points="455.5,271.7 452.2,266.5 455.5,240.5 459.9,236.4 445.1,234.5 448.4,239.6 447.1,249.8 435.9,248.4 
		437.2,238.2 441.6,234.1 426.8,232.2 430.1,237.3 426.8,263.3 422.3,267.5 437.2,269.4 433.9,264.2 435.4,252.4 446.6,253.8 
		445.1,265.6 440.6,269.8 	"/>
	<polygon class="st1" points="504.9,250 493.5,246.2 495.8,251.9 490.2,269 483.2,242.8 475,240.1 476.3,245.4 468.1,270.4 
		463,273.6 474.3,277.3 472,271.7 478.3,252.5 486.4,282.5 494,279.5 492.3,276 499.8,253.2 	"/>
	<polygon class="st1" points="521,263.7 518.2,257.2 508,263.5 510.9,270.1 	"/>
	<path class="st1" d="M540.8,291.3c0-1.6-0.3-3.1-0.7-4.7c-0.5-1.6-1.1-3.1-1.8-4.6c-0.7-1.5-1.4-3-2-4.4c-0.6-1.4-1-2.8-1.1-4
		c-0.2-1.3,0-2.5,0.7-3.6c0.5-0.8,1.1-1.5,2.1-2.1l5.1,9.5l8-1.2c-0.4-0.9-0.7-1.8-1.2-2.6c-0.4-0.8-0.9-1.6-1.4-2.4
		c-0.5-0.8-1.2-1.5-1.9-2.1c-0.7-0.7-1.6-1.3-2.5-1.8c-1.4-0.8-2.8-1.3-4.2-1.6c-1.4-0.2-2.8-0.2-4.1,0.1c-1.3,0.3-2.5,0.8-3.6,1.6
		c-1.1,0.8-2,1.9-2.8,3.1c-0.8,1.4-1.2,2.8-1.2,4.2c0,1.4,0.2,2.9,0.6,4.4c0.4,1.5,1,2.9,1.6,4.4c0.7,1.5,1.2,2.9,1.7,4.3
		c0.5,1.4,0.8,2.7,0.9,4c0.1,1.3-0.1,2.4-0.8,3.5c-0.3,0.6-0.8,1.1-1.4,1.6c-0.6,0.5-1.3,1-2.1,1.4l-5-10.1l-7.9,1.2
		c0.9,2,2.1,3.9,3.6,5.5c1.6,1.7,3.3,3.1,5.1,4.2c1.3,0.8,2.7,1.3,4.1,1.6c1.4,0.3,2.8,0.3,4.2,0c1.3-0.2,2.6-0.7,3.8-1.5
		c1.2-0.8,2.1-1.8,2.9-3.1C540.3,294.4,540.8,292.9,540.8,291.3"/>
	<path class="st2" d="M204.7,361.3l-11.3,20.2c0,0-7.4-0.4-14.9-0.4c0,0-0.6,23.6-0.6,51.8c0,28.3,0.6,60.3,0.6,60.3h-26.6
		c0,0,0.6-32.1,0.6-60.3c0-28.3-0.6-51.8-0.6-51.8c-11.9,0-24.9,0.6-24.9,0.6l9.4-20.4H204.7z"/>
	<path class="st2" d="M269.2,360.3c0,0,7.5,46,14.7,84.5c4.5,23.8,9.4,47.5,9.4,47.5l-27,1.9c0,0-3.4-23.2-6-38.3h-20.7
		c-2.5,15.1-4.7,36.4-4.7,36.4l-21.1,1.9c0,0,4.9-22.8,9.6-49.4c6.6-37.5,14-83.5,14-83.5L269.2,360.3z M249.6,391.8l-7.2,45.3h15.3
		L249.6,391.8z"/>
	<path class="st2" d="M335.3,360.3l6.6,48.3c3,21.3,5.8,41.9,5.8,41.9s3.2-20.6,6.4-41.9c3.4-23.2,6.8-47.3,6.8-47.3l21.3-0.9
		c0,0-5.7,28.1-11.1,58.1c-6.4,35.4-13,73.9-13,73.9l-29.4,1.9c0,0-5.5-40-10.9-75.8c-4.5-30.2-9-57.1-9-57.1L335.3,360.3z"/>
	<path class="st2" d="M464.5,361.3l-12.3,20.2c0,0-8.5-0.4-18.3-0.4v34.9c14,0,27.7-0.4,27.7-0.4l-10.4,19.6c0,0-7.9-0.4-17.3-0.4
		v38.7c15.8,0,31.7-0.4,31.7-0.4l-10.6,20.2h-46.6c0,0,0.6-33.4,0.6-66c0-33.4-0.6-66-0.6-66H464.5z"/>
	<path class="st2" d="M524.6,360.3c10.7,0,19.2,1.7,24.7,5.3c6.2,4,12.6,12.8,12.6,24.5c0,16.6-9.8,27.9-18.7,33
		c0,0,4.5,15.6,11.3,34.7c5.5,15.1,13.2,34.5,13.2,34.5l-28.7,1.9l-18.7-55.6v24.9c0,14.3,0.4,29.8,0.4,29.8h-26.8
		c0,0,0.6-31.7,0.6-66.6c0-31.5-0.6-65.4-0.6-65.4S507.5,360.3,524.6,360.3 M520.5,423.1c0,0,3.4-0.8,7.9-2.1
		c2.3-0.6,8.1-8.9,8.1-20.2c0-17.2-7.9-19.6-13.6-19.6c-0.9,0-1.5,0-2.4,0.2V423.1z"/>
	<path class="st2" d="M673,361.3c0,0-0.6,34.1-0.6,64.1c0,35.3,0.6,66.9,0.6,66.9l-29,1.9c0,0-8.5-26-16.6-50.7
		c-7.4-22.4-14.5-43.9-14.5-43.9c0,45.8,1.1,93.7,1.1,93.7h-19.2c0,0,0.9-69,0.9-128.2l-1.3-3.8h31.7c0,0,6.8,21.3,14,43
		c7.4,22.4,15.3,45.1,15.3,45.1c0-47.7-1.1-88-1.1-88H673z"/>
	<polygon class="st1" points="234,550.7 238,550.7 238,564.6 244.5,564.6 244.5,568.2 234,568.2 	"/>
	<path class="st1" d="M250.2,559.5c0-5,3.5-9.2,9.3-9.2c5.9,0,9.3,4.3,9.3,9.2c0,5-3.5,9.2-9.3,9.2
		C253.7,568.7,250.2,564.4,250.2,559.5 M264.7,559.5c0-3-1.8-5.6-5.1-5.6c-3.3,0-5.1,2.6-5.1,5.6c0,3,1.8,5.6,5.1,5.6
		C262.9,565.1,264.7,562.5,264.7,559.5"/>
	<polygon class="st1" points="276.3,550.7 280.4,550.7 286.5,562 286.5,550.7 290.3,550.7 290.3,568.2 286.2,568.2 280.1,556.9 
		280.1,568.2 276.3,568.2 	"/>
	<path class="st1" d="M298.7,550.7h6.6c5.6,0,8.9,4,8.9,8.7c0,4.7-3.3,8.7-8.9,8.7h-6.6V550.7z M305,564.8c3.4,0,5.1-2.6,5.1-5.3
		c0-2.8-1.7-5.3-5.1-5.3h-2.2v10.7H305z"/>
	<path class="st1" d="M320.7,559.5c0-5,3.5-9.2,9.3-9.2c5.9,0,9.3,4.3,9.3,9.2c0,5-3.5,9.2-9.3,9.2
		C324.1,568.7,320.7,564.4,320.7,559.5 M335.1,559.5c0-3-1.8-5.6-5.1-5.6c-3.4,0-5.2,2.6-5.1,5.6c0,3,1.8,5.6,5.1,5.6
		C333.3,565.1,335.1,562.5,335.1,559.5"/>
	<polygon class="st1" points="346.7,550.7 350.8,550.7 356.9,562 356.9,550.7 360.8,550.7 360.8,568.2 356.6,568.2 350.6,556.9 
		350.6,568.2 346.7,568.2 	"/>
	<polygon class="st1" points="385.9,551.2 396.5,551.2 396.5,554.6 389.9,554.6 389.9,559.3 396.5,559.3 396.5,562.7 389.9,562.7 
		389.9,568.7 385.9,568.7 	"/>
	<path class="st1" d="M414.8,563.2l3.1,5.5h-4.6l-2.8-4.9h-2.1v4.9h-4v-17.5h7.4c3.7,0,6.3,2.6,6.3,6.3
		C418.1,560.1,416.8,562.2,414.8,563.2 M408.4,560.6h2.8c1.6,0,2.8-1.3,2.8-3c0-1.7-1.2-3-2.8-3h-2.8V560.6z"/>
	<polygon class="st1" points="425.6,551.2 436.3,551.2 436.3,554.5 429.7,554.5 429.7,558.4 436.3,558.4 436.3,561.6 429.7,561.6 
		429.7,565.5 436.3,565.5 436.3,568.7 425.6,568.7 	"/>
	<polygon class="st1" points="444.5,551.2 455.2,551.2 455.2,554.5 448.5,554.5 448.5,558.4 455.2,558.4 455.2,561.6 448.5,561.6 
		448.5,565.5 455.2,565.5 455.2,568.7 444.5,568.7 	"/>
	<polygon class="st1" points="463.4,551.2 467.4,551.2 467.4,558.3 473.5,558.3 473.5,551.2 477.5,551.2 477.5,568.7 473.5,568.7 
		473.5,561.8 467.4,561.8 467.4,568.7 463.4,568.7 	"/>
	<path class="st1" d="M484.9,560c0-5,3.5-9.2,9.3-9.2c5.9,0,9.3,4.3,9.3,9.2c0,5-3.5,9.2-9.3,9.2C488.4,569.2,484.9,564.9,484.9,560
		 M499.4,560c0-3-1.8-5.6-5.1-5.6c-3.3,0-5.1,2.6-5.1,5.6c0,3,1.8,5.6,5.1,5.6C497.6,565.6,499.4,563,499.4,560"/>
	<path class="st1" d="M510.5,562.8v-11.6h4v11.3c0,2,1.2,3.1,3,3.1c1.8,0,3-1.1,3-3.1v-11.3h4v11.6c0,4.1-2.8,6.4-7.1,6.4
		C513.3,569.2,510.5,566.9,510.5,562.8"/>
	<path class="st1" d="M531.5,563h4c0,1.9,1.1,3,2.8,3c1.5,0,2.3-0.7,2.3-1.9c0-1.1-0.5-1.6-2.1-2.3l-3.1-1.2
		c-2.3-0.9-3.5-2.5-3.5-4.8c0-3.1,2.4-5.1,6.2-5.1c3.9,0,6.4,2.2,6.4,5.5h-4c0-1.6-0.8-2.5-2.4-2.5c-1.3,0-2.1,0.7-2.1,1.7
		c0,1,0.7,1.6,2.4,2.3l2.9,1.2c2.4,0.9,3.5,2.6,3.5,4.9c0,3.3-2.5,5.4-6.4,5.4C534.1,569.2,531.5,566.9,531.5,563"/>
	<polygon class="st1" points="552.2,551.2 562.9,551.2 562.9,554.5 556.2,554.5 556.2,558.4 562.9,558.4 562.9,561.6 556.2,561.6 
		556.2,565.5 562.9,565.5 562.9,568.7 552.2,568.7 	"/>
</g>
</svg>
